<?xml version="1.0" encoding="UTF-8" standalone="no"?>
<svg
   xmlns:dc="http://purl.org/dc/elements/1.1/"
   xmlns:cc="http://creativecommons.org/ns#"
   xmlns:rdf="http://www.w3.org/1999/02/22-rdf-syntax-ns#"
   xmlns:svg="http://www.w3.org/2000/svg"
   xmlns="http://www.w3.org/2000/svg"
   xmlns:xlink="http://www.w3.org/1999/xlink"
   xmlns:sodipodi="http://sodipodi.sourceforge.net/DTD/sodipodi-0.dtd"
   xmlns:inkscape="http://www.inkscape.org/namespaces/inkscape"
   inkscape:version="0.92.5 (2060ec1f9f, 2020-04-08)"
   sodipodi:docname="alternative-symbolic.svg"
   id="svg2"
   version="1.1"
   width="489.7869"
   height="489.7869">
  <sodipodi:namedview
     inkscape:current-layer="svg2"
     inkscape:window-maximized="1"
     inkscape:window-y="0"
     inkscape:window-x="0"
     inkscape:cy="303.07047"
     inkscape:cx="250.41882"
     inkscape:zoom="1.4414062"
     showgrid="false"
     id="namedview55"
     inkscape:window-height="1258"
     inkscape:window-width="2560"
     inkscape:pageshadow="2"
     inkscape:pageopacity="0"
     guidetolerance="10"
     gridtolerance="10"
     objecttolerance="10"
     borderopacity="1"
     bordercolor="#666666"
     pagecolor="#ffffff"
     showguides="false"
     fit-margin-top="0"
     fit-margin-left="0"
     fit-margin-right="0"
     fit-margin-bottom="0" />
  <metadata
     id="metadata8">
    <rdf:RDF>
      <cc:Work
         rdf:about="">
        <dc:format>image/svg+xml</dc:format>
        <dc:type
           rdf:resource="http://purl.org/dc/dcmitype/StillImage" />
        <dc:title></dc:title>
      </cc:Work>
    </rdf:RDF>
  </metadata>
  <defs
     id="defs6">
    <linearGradient
       id="linearGradient3764"
       x1="1"
       x2="47"
       gradientUnits="userSpaceOnUse"
       gradientTransform="rotate(-90,23.999998,24)">
      <stop
         stop-color="#e4e4e4"
         stop-opacity="1"
         id="stop7" />
      <stop
         offset="1"
         stop-color="#eee"
         stop-opacity="1"
         id="stop9" />
    </linearGradient>
    <clipPath
       id="clipPath-365326813">
      <g
         transform="translate(0,-1004.3622)"
         id="g12">
        <path
           d="m -24,13 c 0,1.105 -0.672,2 -1.5,2 -0.828,0 -1.5,-0.895 -1.5,-2 0,-1.105 0.672,-2 1.5,-2 0.828,0 1.5,0.895 1.5,2 z"
           transform="matrix(15.333333,0,0,11.5,414.99999,878.8622)"
           id="path14"
           style="fill:#1890d0"
           inkscape:connector-curvature="0" />
      </g>
    </clipPath>
    <clipPath
       id="clipPath-370729992">
      <g
         transform="translate(0,-1004.3622)"
         id="g17">
        <path
           d="m -24,13 c 0,1.105 -0.672,2 -1.5,2 -0.828,0 -1.5,-0.895 -1.5,-2 0,-1.105 0.672,-2 1.5,-2 0.828,0 1.5,0.895 1.5,2 z"
           transform="matrix(15.333333,0,0,11.5,414.99999,878.8622)"
           id="path19"
           style="fill:#1890d0"
           inkscape:connector-curvature="0" />
      </g>
    </clipPath>
    <defs
       id="defs5">
      <rect
         height="1024"
         width="1024"
         id="SVGID_1_"
         x="0"
         y="0" />
    </defs>
    <clipPath
       id="SVGID_2_">
      <use
         id="use9"
         overflow="visible"
         xlink:href="#SVGID_1_"
         style="overflow:visible"
         x="0"
         y="0"
         width="100%"
         height="100%" />
    </clipPath>
    <defs
       id="defs38">
      <rect
         id="SVGID_8_"
         width="1024"
         height="1024"
         x="0"
         y="0" />
    </defs>
    <clipPath
       id="SVGID_9_">
      <use
         xlink:href="#SVGID_8_"
         overflow="visible"
         id="use42"
         style="overflow:visible"
         x="0"
         y="0"
         width="100%"
         height="100%" />
    </clipPath>
    <defs
       id="defs44">
      <filter
         id="Adobe_OpacityMaskFilter"
         filterUnits="userSpaceOnUse"
         x="305.03299"
         y="293.44199"
         width="413.93399"
         height="413.96701">
        <feFlood
           result="back"
           id="feFlood47" />
        <feBlend
           in="SourceGraphic"
           in2="back"
           mode="normal"
           id="feBlend49" />
      </filter>
    </defs>
    <mask
       maskUnits="userSpaceOnUse"
       x="305.033"
       y="293.442"
       width="413.934"
       height="413.967"
       id="SVGID_10_">
      <g
         id="g52"
         style="filter:url(#Adobe_OpacityMaskFilter)">
        <g
           enable-background="new    "
           id="g54">
          <g
             id="g56">
            <defs
               id="defs58">
              <path
                 id="SVGID_11_"
                 d="m 513.458,309.257 c 91.063,0 164.903,76.897 164.903,171.722 0,94.833 -73.84,171.727 -164.903,171.727 -91.047,0 -164.89,-76.894 -164.89,-171.727 0,-94.825 73.843,-171.722 164.89,-171.722"
                 inkscape:connector-curvature="0" />
            </defs>
            <clipPath
               id="SVGID_12_"
               clip-path="url(#SVGID_9_)">
              <use
                 xlink:href="#SVGID_11_"
                 overflow="visible"
                 id="use62"
                 style="overflow:visible"
                 x="0"
                 y="0"
                 width="100%"
                 height="100%" />
            </clipPath>
            <linearGradient
               id="SVGID_13_"
               gradientUnits="userSpaceOnUse"
               x1="0"
               y1="1024"
               x2="1"
               y2="1024"
               gradientTransform="matrix(-10.9559,383.4525,383.4525,10.9559,-392132.59,-11061.132)">
              <stop
                 offset="0"
                 style="stop-color:#1C1B18"
                 id="stop65" />
              <stop
                 offset="0.1871"
                 style="stop-color:#4B4846"
                 id="stop67" />
              <stop
                 offset="0.3677"
                 style="stop-color:#7F7B79"
                 id="stop69" />
              <stop
                 offset="0.5336"
                 style="stop-color:#B0ADAD"
                 id="stop71" />
              <stop
                 offset="0.6817"
                 style="stop-color:#D9D8D8"
                 id="stop73" />
              <stop
                 offset="0.8068"
                 style="stop-color:#F5F5F5"
                 id="stop75" />
              <stop
                 offset="0.8938"
                 style="stop-color:#FFFFFF"
                 id="stop77" />
              <stop
                 offset="1"
                 style="stop-color:#FFFFFF"
                 id="stop79" />
            </linearGradient>
            <polygon
               clip-path="url(#SVGID_12_)"
               points="348.837,299.842 688.166,309.537 678.092,662.121 338.763,652.426 "
               id="polygon81"
               style="fill:url(#SVGID_13_)" />
          </g>
        </g>
      </g>
    </mask>
    <filter
       style="color-interpolation-filters:sRGB"
       id="filter139">
      <feFlood
         flood-opacity="0.498039"
         flood-color="rgb(0,0,0)"
         result="flood"
         id="feFlood129" />
      <feComposite
         in="flood"
         in2="SourceGraphic"
         operator="in"
         result="composite1"
         id="feComposite131" />
      <feGaussianBlur
         in="composite1"
         stdDeviation="3"
         result="blur"
         id="feGaussianBlur133" />
      <feOffset
         dx="2"
         dy="2"
         result="offset"
         id="feOffset135" />
      <feComposite
         in="SourceGraphic"
         in2="offset"
         operator="over"
         result="composite2"
         id="feComposite137" />
    </filter>
  </defs>
  <circle
     style="fill:#00aad4;fill-opacity:1;stroke-width:1.21617174"
     id="path77-3"
     cx="244.89345"
     cy="244.89345"
     r="229.94545" />
  <rect
     style="fill:#b7c4c8;fill-opacity:1;stroke-width:1.21617174"
     id="rect177-9"
     width="85.090797"
     height="255.2724"
     x="-179.92674"
     y="127.6743"
     transform="rotate(-90)" />
  <rect
     style="fill:#b7c4c8;fill-opacity:1;stroke-width:1.21617174"
     id="rect177"
     width="85.090797"
     height="255.2724"
     x="317.06732"
     y="93.823181" />
  <path
     inkscape:connector-curvature="0"
     style="fill:#383a3c;fill-opacity:1;stroke-width:1.21617174"
     d="M 244.89398,14.947007 A 229.94546,229.94546 0 0 0 14.947244,244.89374 229.94546,229.94546 0 0 0 244.89398,474.8381 229.94546,229.94546 0 0 0 474.83833,244.89374 229.94546,229.94546 0 0 0 244.89398,14.947007 Z M 204.38976,115.2788 h 145.8171 c 13.41719,0 24.30205,10.88488 24.30205,24.30206 v 145.8171 c 0,13.41719 -10.88486,24.30206 -24.30205,24.30206 h -24.30444 v -105.3105 c 0,-22.32822 -18.17601,-40.50659 -40.50421,-40.50659 H 180.08532 v -24.30207 c 0,-13.41718 10.88725,-24.30206 24.30444,-24.30206 z m -64.80866,64.80628 h 145.81711 c 13.41718,0 24.30205,10.88726 24.30205,24.30444 v 145.81709 c 0,13.41719 -10.88488,24.30207 -24.30205,24.30207 H 139.5811 c -13.41718,0 -24.30205,-10.88488 -24.30205,-24.30207 V 204.38952 c 0,-13.41718 10.88487,-24.30444 24.30205,-24.30444 z m 14.17601,32.40433 c -3.34164,0 -6.07612,2.73449 -6.07612,6.07612 v 26.32821 h 127.59115 v -26.32821 c 0,-3.34163 -2.73446,-6.07612 -6.0761,-6.07612 z m 16.65109,74.97272 c -12.28138,0 -21.56567,9.2843 -21.56567,21.56567 0,12.2065 9.36006,21.34239 21.94098,21.34239 6.96443,0 11.45731,-2.32051 15.80074,-8.16165 v 7.19014 h 5.54165 v -40.96266 h -5.54165 v 7.2614 c -4.04388,-5.69137 -9.06183,-8.23529 -16.17605,-8.23529 z m 0.14965,5.09272 c 8.98638,0 16.0264,7.03753 16.0264,16.17366 -1e-5,9.28593 -6.88814,16.55134 -15.72473,16.55134 -9.28592,0 -16.40169,-7.26417 -16.40169,-16.62497 0,-8.91149 7.18853,-16.10003 16.10002,-16.10003 z"
     id="path77" />
  <circle
     style="fill:none;fill-opacity:1;stroke:#b7c4c8;stroke-width:15;stroke-miterlimit:4;stroke-dasharray:none;stroke-opacity:1"
     id="path4854"
     cx="244.89345"
     cy="244.89345"
     r="237.39345" />
</svg>
