<?xml version="1.0" encoding="UTF-8" standalone="no"?>
<svg
   xmlns:dc="http://purl.org/dc/elements/1.1/"
   xmlns:cc="http://creativecommons.org/ns#"
   xmlns:rdf="http://www.w3.org/1999/02/22-rdf-syntax-ns#"
   xmlns:svg="http://www.w3.org/2000/svg"
   xmlns="http://www.w3.org/2000/svg"
   xmlns:xlink="http://www.w3.org/1999/xlink"
   xmlns:sodipodi="http://sodipodi.sourceforge.net/DTD/sodipodi-0.dtd"
   xmlns:inkscape="http://www.inkscape.org/namespaces/inkscape"
   inkscape:export-ydpi="96"
   inkscape:export-xdpi="96"
   inkscape:export-filename="/home/andy/Downloads/new-cat-icons/simple-logo.png"
   sodipodi:docname="simple-symbolic.svg"
   height="489.7869"
   width="489.7869"
   inkscape:version="0.92.5 (2060ec1f9f, 2020-04-08)"
   version="1.1"
   id="svg2">
  <metadata
     id="metadata8">
    <rdf:RDF>
      <cc:Work
         rdf:about="">
        <dc:format>image/svg+xml</dc:format>
        <dc:type
           rdf:resource="http://purl.org/dc/dcmitype/StillImage" />
        <dc:title></dc:title>
      </cc:Work>
    </rdf:RDF>
  </metadata>
  <defs
     id="defs6">
    <linearGradient
       gradientTransform="rotate(-90,23.999998,24)"
       gradientUnits="userSpaceOnUse"
       x2="47"
       x1="1"
       id="linearGradient3764">
      <stop
         id="stop7"
         stop-opacity="1"
         stop-color="#e4e4e4" />
      <stop
         id="stop9"
         stop-opacity="1"
         stop-color="#eee"
         offset="1" />
    </linearGradient>
    <clipPath
       id="clipPath-365326813">
      <g
         id="g12"
         transform="translate(0,-1004.3622)">
        <path
           style="fill:#1890d0"
           inkscape:connector-curvature="0"
           id="path14"
           transform="matrix(15.333333,0,0,11.5,414.99999,878.8622)"
           d="m -24,13 c 0,1.105 -0.672,2 -1.5,2 -0.828,0 -1.5,-0.895 -1.5,-2 0,-1.105 0.672,-2 1.5,-2 0.828,0 1.5,0.895 1.5,2 z" />
      </g>
    </clipPath>
    <clipPath
       id="clipPath-370729992">
      <g
         id="g17"
         transform="translate(0,-1004.3622)">
        <path
           style="fill:#1890d0"
           inkscape:connector-curvature="0"
           id="path19"
           transform="matrix(15.333333,0,0,11.5,414.99999,878.8622)"
           d="m -24,13 c 0,1.105 -0.672,2 -1.5,2 -0.828,0 -1.5,-0.895 -1.5,-2 0,-1.105 0.672,-2 1.5,-2 0.828,0 1.5,0.895 1.5,2 z" />
      </g>
    </clipPath>
    <inkscape:perspective
       sodipodi:type="inkscape:persp3d"
       inkscape:vp_x="0 : 256 : 1"
       inkscape:vp_y="0 : 1000 : 0"
       inkscape:vp_z="512 : 256 : 1"
       inkscape:persp3d-origin="256 : 170.66667 : 1"
       id="perspective3018" />
    <defs
       id="defs5">
      <rect
         id="SVGID_1_"
         width="1024"
         height="1024"
         x="0"
         y="0" />
    </defs>
    <clipPath
       id="SVGID_2_">
      <use
         xlink:href="#SVGID_1_"
         overflow="visible"
         id="use9"
         style="overflow:visible"
         x="0"
         y="0"
         width="100%"
         height="100%" />
    </clipPath>
    <defs
       id="defs38">
      <rect
         y="0"
         x="0"
         height="1024"
         width="1024"
         id="SVGID_8_" />
    </defs>
    <clipPath
       id="SVGID_9_">
      <use
         height="100%"
         width="100%"
         y="0"
         x="0"
         style="overflow:visible"
         id="use42"
         overflow="visible"
         xlink:href="#SVGID_8_" />
    </clipPath>
    <defs
       id="defs44">
      <filter
         height="413.96701"
         width="413.93399"
         y="293.44199"
         x="305.03299"
         filterUnits="userSpaceOnUse"
         id="Adobe_OpacityMaskFilter">
        <feFlood
           id="feFlood47"
           result="back" />
        <feBlend
           id="feBlend49"
           mode="normal"
           in2="back"
           in="SourceGraphic" />
      </filter>
    </defs>
    <mask
       id="SVGID_10_"
       height="413.967"
       width="413.934"
       y="293.442"
       x="305.033"
       maskUnits="userSpaceOnUse">
      <g
         style="filter:url(#Adobe_OpacityMaskFilter)"
         id="g52">
        <g
           id="g54"
           enable-background="new    ">
          <g
             id="g56">
            <defs
               id="defs58">
              <path
                 inkscape:connector-curvature="0"
                 d="m 513.458,309.257 c 91.063,0 164.903,76.897 164.903,171.722 0,94.833 -73.84,171.727 -164.903,171.727 -91.047,0 -164.89,-76.894 -164.89,-171.727 0,-94.825 73.843,-171.722 164.89,-171.722"
                 id="SVGID_11_" />
            </defs>
            <clipPath
               clip-path="url(#SVGID_9_)"
               id="SVGID_12_">
              <use
                 height="100%"
                 width="100%"
                 y="0"
                 x="0"
                 style="overflow:visible"
                 id="use62"
                 overflow="visible"
                 xlink:href="#SVGID_11_" />
            </clipPath>
            <linearGradient
               gradientTransform="matrix(-10.9559,383.4525,383.4525,10.9559,-392132.59,-11061.132)"
               y2="1024"
               x2="1"
               y1="1024"
               x1="0"
               gradientUnits="userSpaceOnUse"
               id="SVGID_13_">
              <stop
                 id="stop65"
                 style="stop-color:#1C1B18"
                 offset="0" />
              <stop
                 id="stop67"
                 style="stop-color:#4B4846"
                 offset="0.1871" />
              <stop
                 id="stop69"
                 style="stop-color:#7F7B79"
                 offset="0.3677" />
              <stop
                 id="stop71"
                 style="stop-color:#B0ADAD"
                 offset="0.5336" />
              <stop
                 id="stop73"
                 style="stop-color:#D9D8D8"
                 offset="0.6817" />
              <stop
                 id="stop75"
                 style="stop-color:#F5F5F5"
                 offset="0.8068" />
              <stop
                 id="stop77"
                 style="stop-color:#FFFFFF"
                 offset="0.8938" />
              <stop
                 id="stop79"
                 style="stop-color:#FFFFFF"
                 offset="1" />
            </linearGradient>
            <polygon
               style="fill:url(#SVGID_13_)"
               id="polygon81"
               points="348.837,299.842 688.166,309.537 678.092,662.121 338.763,652.426 "
               clip-path="url(#SVGID_12_)" />
          </g>
        </g>
      </g>
    </mask>
    <filter
       id="filter139"
       inkscape:label="Drop Shadow"
       style="color-interpolation-filters:sRGB">
      <feFlood
         id="feFlood129"
         result="flood"
         flood-color="rgb(0,0,0)"
         flood-opacity="0.498039" />
      <feComposite
         id="feComposite131"
         result="composite1"
         operator="in"
         in2="SourceGraphic"
         in="flood" />
      <feGaussianBlur
         id="feGaussianBlur133"
         result="blur"
         stdDeviation="3"
         in="composite1" />
      <feOffset
         id="feOffset135"
         result="offset"
         dy="2"
         dx="2" />
      <feComposite
         id="feComposite137"
         result="composite2"
         operator="over"
         in2="offset"
         in="SourceGraphic" />
    </filter>
  </defs>
  <sodipodi:namedview
     inkscape:document-rotation="0"
     inkscape:guide-bbox="true"
     showguides="true"
     inkscape:current-layer="svg2"
     inkscape:window-maximized="1"
     inkscape:window-y="0"
     inkscape:window-x="0"
     inkscape:cy="294.42395"
     inkscape:cx="192.29093"
     inkscape:zoom="1.84375"
     showgrid="false"
     id="namedview4"
     inkscape:window-height="1258"
     inkscape:window-width="2560"
     inkscape:pageshadow="2"
     inkscape:pageopacity="0"
     guidetolerance="10"
     gridtolerance="10"
     objecttolerance="10"
     borderopacity="1"
     bordercolor="#666666"
     pagecolor="#ffffff"
     fit-margin-top="0"
     fit-margin-left="0"
     fit-margin-right="0"
     fit-margin-bottom="0" />
  <g
     id="g5474"
     transform="translate(-11.106552,-11.106552)"
     style="stroke:#b7c4c8;stroke-opacity:1">
    <circle
       style="fill:#00aad4;fill-opacity:1;stroke-width:1.21617174;stroke:#b7c4c8;stroke-opacity:1"
       id="path77-3"
       cx="256"
       cy="256"
       r="229.94545" />
    <rect
       style="fill:#53676c;fill-opacity:1;stroke-width:1.21617174;stroke:#b7c4c8;stroke-opacity:1"
       id="rect96-0"
       width="128.62563"
       height="128.62563"
       x="261.88214"
       y="102.06723" />
    <rect
       style="fill:#b7c4c8;fill-opacity:1;stroke-width:1.21617174;stroke:#b7c4c8;stroke-opacity:1"
       id="rect96"
       width="128.62563"
       height="128.62563"
       x="124.59906"
       y="102.06723" />
    <path
       style="fill:#383a3c;fill-opacity:1;stroke-width:1.21617174;stroke:#b7c4c8;stroke-opacity:1"
       d="M 256.00053,26.053559 A 229.94546,229.94546 0 0 0 26.053796,256.00029 229.94546,229.94546 0 0 0 256.00053,485.94465 229.94546,229.94546 0 0 0 485.94488,256.00029 229.94546,229.94546 0 0 0 256.00053,26.053559 Z m -17.97417,86.148661 h 8.9859 v 107.84974 h -98.8591 v -17.97654 a 89.873037,89.873037 0 0 1 89.8732,-89.8732 z m 26.96006,0 h 8.98827 a 89.873037,89.873037 0 0 1 89.8732,89.8732 v 17.97654 H 264.98642 Z M 148.15316,238.02613 h 215.69473 v 71.89665 a 89.873037,89.873037 0 0 1 -89.8732,89.8732 h -35.94833 a 89.873037,89.873037 0 0 1 -89.8732,-89.8732 z m 107.79274,70.34318 c -8.86398,0 -15.56558,6.7016 -15.56558,15.56558 0,8.80992 6.75619,15.40404 15.83636,15.40404 5.02652,0 8.26915,-1.67502 11.404,-5.89082 v 5.18773 h 4.00006 v -29.56342 h -4.00006 v 5.24236 c -2.91865,-4.10771 -6.54016,-5.94547 -11.67478,-5.94547 z m 0.1069,3.67703 c 6.48585,0 11.56789,5.07846 11.56789,11.6724 0,6.70201 -4.97401,11.94555 -11.35174,11.94555 -6.70203,0 -11.83629,-5.24172 -11.83629,-11.99781 0,-6.43179 5.18836,-11.62014 11.62014,-11.62014 z"
       id="path77"
       inkscape:connector-curvature="0" />
    <circle
       r="237.39345"
       cy="256"
       cx="256"
       id="path4854"
       style="fill:none;fill-opacity:1;stroke:#b7c4c8;stroke-width:15;stroke-miterlimit:4;stroke-dasharray:none;stroke-opacity:1" />
  </g>
</svg>
