<?xml version="1.0" encoding="UTF-8" standalone="no"?>
<svg
   xmlns:dc="http://purl.org/dc/elements/1.1/"
   xmlns:cc="http://creativecommons.org/ns#"
   xmlns:rdf="http://www.w3.org/1999/02/22-rdf-syntax-ns#"
   xmlns:svg="http://www.w3.org/2000/svg"
   xmlns="http://www.w3.org/2000/svg"
   xmlns:xlink="http://www.w3.org/1999/xlink"
   xmlns:sodipodi="http://sodipodi.sourceforge.net/DTD/sodipodi-0.dtd"
   xmlns:inkscape="http://www.inkscape.org/namespaces/inkscape"
   id="svg8"
   version="1.1"
   viewBox="0 0 16.933333 16.933333"
   height="64"
   width="64"
   sodipodi:docname="arcmenu-manual-icon.svg"
   inkscape:version="0.92.4 (5da689c313, 2019-01-14)">
  <sodipodi:namedview
     pagecolor="#ffffff"
     bordercolor="#666666"
     borderopacity="1"
     objecttolerance="10"
     gridtolerance="10"
     guidetolerance="10"
     inkscape:pageopacity="0"
     inkscape:pageshadow="2"
     inkscape:window-width="3840"
     inkscape:window-height="2032"
     id="namedview28"
     showgrid="false"
     inkscape:zoom="41.7193"
     inkscape:cx="29.536498"
     inkscape:cy="18.576956"
     inkscape:window-x="0"
     inkscape:window-y="56"
     inkscape:window-maximized="1"
     inkscape:current-layer="layer1" />
  <defs
     id="defs2">
    <symbol
       id="DownArrow">
      <title
         id="title3576">Down Arrow</title>
      <path
         id="path3578"
         style="stroke:none;stroke-width:0.26458332"
         d="M 9.525,16.66875 3.7041667,10.847917 V 6.8791667 L 7.9375,11.1125 V 2.6458333 h 3.175 V 11.1125 l 4.233333,-4.2333333 v 3.9687503 z" />
    </symbol>
  </defs>
  <metadata
     id="metadata5">
    <rdf:RDF>
      <cc:Work
         rdf:about="">
        <dc:format>image/svg+xml</dc:format>
        <dc:type
           rdf:resource="http://purl.org/dc/dcmitype/StillImage" />
        <dc:title />
      </cc:Work>
    </rdf:RDF>
  </metadata>
  <g
     transform="translate(0,-280.06667)"
     id="layer1">
    <rect
       rx="0.52538913"
       ry="1.1442477"
       y="282.98914"
       x="0.89666307"
       height="2.2884953"
       width="7.0097961"
       id="rect5682-2"
       style="fill:#000000;fill-opacity:0.2;stroke:none;stroke-width:0.13248302;stroke-miterlimit:4;stroke-dasharray:none;stroke-opacity:1" />
    <g
       transform="matrix(0.26458333,0,0,0.26458333,0.06925406,279.34729)"
       id="g4823">
      <path
         style="opacity:0.2"
         d="M 14.5,8 C 13.115,8 12,9.115 12,10.5 v 45 c 0,1.385 1.115,2.5 2.5,2.5 h 35 C 50.885,58 52,56.885 52,55.5 V 23 L 38.25,21.75 37,8 Z"
         id="path4794" />
      <path
         style="fill:#c03630"
         d="M 14.5,7 C 13.115,7 12,8.115 12,9.5 v 45 c 0,1.385 1.115,2.5 2.5,2.5 h 35 C 50.885,57 52,55.885 52,54.5 V 22 L 38.25,20.75 37,7 Z"
         id="path4796" />
      <path
         style="opacity:0.2"
         d="m 37,8 v 12.5 c 0,1.3808 1.1193,2.5 2.5,2.5 H 52 Z"
         id="path4798" />
      <path
         style="fill:#f36961"
         d="m 37,7 v 12.5 c 0,1.3808 1.1193,2.5 2.5,2.5 H 52 Z"
         id="path4800" />
      <path
         style="opacity:0.2"
         d="m 29.976,25.562 c -0.57658,0 -1.1158,0.28221 -1.2462,0.74801 -0.4844,1.7858 0.05775,4.5474 0.96195,7.9883 l -0.27276,0.66618 c -0.69234,1.6876 -1.5578,3.3684 -2.3188,4.8599 -3.1419,6.1475 -5.5861,9.4644 -7.2159,9.6968 l -0.0063,-0.0675 c -0.03537,-0.76682 1.3798,-2.7439 3.2978,-4.3158 0.20006,-0.1618 1.0538,-0.98776 1.0538,-0.98776 0,0 -1.1524,0.60834 -1.4112,0.76522 -2.4035,1.4346 -3.5995,2.872 -3.7945,3.8261 -0.05788,0.2834 -0.02075,0.63212 0.22969,0.7753 l 0.6145,0.30868 c 1.673,0.83744 3.7301,-1.3645 6.465,-6.1578 2.783,-0.91295 6.2554,-1.7725 9.4169,-2.2382 2.83,1.617 6.0762,2.3869 7.3235,2.0545 0.23734,-0.06275 0.487,-0.24905 0.6145,-0.42065 0.1,-0.15789 0.23979,-0.78965 0.23979,-0.78965 0,0 -0.23466,0.31934 -0.42788,0.41348 -0.7894,0.37264 -3.2816,-0.24905 -5.839,-1.5002 2.2112,-0.23535 4.0534,-0.24442 5.0379,0.07025 1.2504,0.39912 1.2514,0.80824 1.2347,0.89158 0.01687,-0.06862 0.07287,-0.34272 0.066,-0.45941 -0.02837,-0.30008 -0.12088,-0.56804 -0.34744,-0.78965 -0.46284,-0.45599 -1.6056,-0.68578 -3.1629,-0.70636 -1.1738,-0.01275 -2.5812,0.09 -4.109,0.30868 -0.70015,-0.40205 -1.439,-0.84402 -2.0244,-1.3912 -1.4846,-1.3866 -2.729,-3.3118 -3.5018,-5.47 0.05275,-0.20691 0.10325,-0.40909 0.1493,-0.61306 0.21479,-0.96589 0.36896,-4.1592 0.36896,-4.1592 0,0 -0.61168,2.399 -0.70778,2.7609 -0.06175,0.22946 -0.13858,0.47438 -0.22684,0.72934 -0.46875,-1.6474 -0.70636,-3.244 -0.70636,-4.455 0,-0.34224 0.02938,-1.0082 0.12631,-1.5348 0.04725,-0.37556 0.18325,-0.57059 0.3245,-0.66474 0.27946,0.06775 0.59229,0.49635 0.91886,1.2132 0.28044,0.61975 0.26271,1.3375 0.26271,1.7818 0,0 0.30076,-1.1 0.23115,-1.7501 -0.04237,-0.39029 -0.4137,-1.3944 -1.2031,-1.3826 h -0.06463 l -0.35174,-0.0038 z m 0.26848,9.9739 c 0.81689,1.6425 1.9435,3.2024 3.4214,4.4536 0.32946,0.27849 0.68,0.54344 1.0409,0.7925 -2.6839,0.49914 -5.5026,1.2013 -8.1219,2.2986 0.47364,-0.84136 0.98576,-1.758 1.5104,-2.7465 1.0159,-1.921 1.6315,-3.4028 2.1492,-4.7981 z"
         id="path4802" />
      <path
         style="fill:#ffffff"
         d="m 29.976,24.562 c -0.57658,0 -1.1158,0.28221 -1.2462,0.74801 -0.4844,1.7858 0.05775,4.5474 0.96195,7.9883 l -0.27276,0.66618 c -0.69234,1.6876 -1.5578,3.3684 -2.3188,4.8599 -3.1419,6.1475 -5.5861,9.4644 -7.2159,9.6968 l -0.0063,-0.0675 c -0.03537,-0.76682 1.3798,-2.7439 3.2978,-4.3158 0.20006,-0.1618 1.0538,-0.98776 1.0538,-0.98776 0,0 -1.1524,0.60834 -1.4112,0.76522 -2.4035,1.4346 -3.5995,2.872 -3.7945,3.8261 -0.05788,0.2834 -0.02075,0.63212 0.22969,0.7753 l 0.6145,0.30868 c 1.673,0.83744 3.7301,-1.3645 6.465,-6.1578 2.783,-0.91295 6.2554,-1.7725 9.4169,-2.2382 2.83,1.617 6.0762,2.3869 7.3235,2.0545 0.23734,-0.06275 0.487,-0.24905 0.6145,-0.42065 0.1,-0.15789 0.23979,-0.78965 0.23979,-0.78965 0,0 -0.23466,0.31934 -0.42788,0.41348 -0.7894,0.37264 -3.2816,-0.24905 -5.839,-1.5002 2.2112,-0.23535 4.0534,-0.24442 5.0379,0.07025 1.2504,0.39912 1.2514,0.80824 1.2347,0.89158 0.01687,-0.06862 0.07287,-0.34272 0.066,-0.45941 -0.02837,-0.30008 -0.12088,-0.56804 -0.34744,-0.78965 -0.46284,-0.45599 -1.6056,-0.68578 -3.1629,-0.70636 -1.1738,-0.01275 -2.5812,0.09 -4.109,0.30868 -0.70015,-0.40205 -1.439,-0.84402 -2.0244,-1.3912 -1.4846,-1.3866 -2.729,-3.3118 -3.5018,-5.47 0.05275,-0.20691 0.10325,-0.40909 0.1493,-0.61306 0.21479,-0.96589 0.36896,-4.1592 0.36896,-4.1592 0,0 -0.61168,2.399 -0.70778,2.7609 -0.06175,0.22946 -0.13858,0.47438 -0.22684,0.72934 -0.46875,-1.6474 -0.70636,-3.244 -0.70636,-4.455 0,-0.34224 0.02938,-1.0082 0.12631,-1.5348 0.04725,-0.37556 0.18325,-0.57059 0.3245,-0.66474 0.27946,0.06775 0.59229,0.49635 0.91886,1.2132 0.28044,0.61975 0.26271,1.3375 0.26271,1.7818 0,0 0.30076,-1.1 0.23115,-1.7501 -0.04237,-0.39029 -0.4137,-1.3944 -1.2031,-1.3826 h -0.06463 l -0.35174,-0.0038 z m 0.26848,9.9739 c 0.81689,1.6425 1.9435,3.2024 3.4214,4.4536 0.32946,0.27849 0.68,0.54344 1.0409,0.7925 -2.6839,0.49914 -5.5026,1.2013 -8.1219,2.2986 0.47364,-0.84136 0.98576,-1.758 1.5104,-2.7465 1.0159,-1.921 1.6315,-3.4028 2.1492,-4.7981 z"
         id="path4804" />
      <path
         style="opacity:0.2;fill:#ffffff"
         d="M 14.5,7 C 13.115,7 12,8.115 12,9.5 v 1 C 12,9.115 13.115,8 14.5,8 H 37 c 0,-1 0,0 0,-1 z"
         id="path4806" />
    </g>
    <rect
       rx="0.52387244"
       ry="1.1442477"
       y="282.68439"
       x="0.89666307"
       height="2.2884953"
       width="6.9895606"
       id="rect5682"
       style="fill:#c03630;fill-opacity:1;stroke:#ffffff;stroke-width:0.13229166;stroke-miterlimit:4;stroke-dasharray:none;stroke-opacity:1" />
    <text
       id="text5688"
       y="284.66534"
       x="2.3853962"
       style="font-style:normal;font-weight:normal;font-size:2.26447392px;line-height:1.25;font-family:sans-serif;letter-spacing:0px;word-spacing:0px;fill:#ffffff;fill-opacity:1;stroke:none;stroke-width:0.13229166;stroke-miterlimit:4;stroke-dasharray:none;stroke-opacity:1;"
       xml:space="preserve"><tspan
         style="font-style:normal;font-variant:normal;font-weight:600;font-stretch:normal;font-size:2.26446128px;font-family:'URW Gothic L';-inkscape-font-specification:'URW Gothic L, Semi-Bold';font-variant-ligatures:normal;font-variant-caps:normal;font-variant-numeric:normal;font-feature-settings:normal;text-align:start;writing-mode:lr-tb;text-anchor:start;fill:#ffffff;fill-opacity:1;stroke:none;stroke-width:0.13229166;stroke-miterlimit:4;stroke-dasharray:none;stroke-opacity:1;"
         y="284.66534"
         x="2.3853962"
         id="tspan5686">PDF</tspan></text>
    <use
       height="100%"
       width="100%"
       y="0"
       x="0"
       xlink:href="#DownArrow"
       style="fill:#c03630;fill-opacity:1;stroke:#000000;stroke-opacity:1"
       transform="matrix(0.2611533,0,0,0.2611533,5.8673427,291.46065)"
       id="use4849" />
    <use
       height="100%"
       width="100%"
       y="0"
       x="0"
       xlink:href="#DownArrow"
       style="fill:#ffffff;fill-opacity:1;stroke:#000000;stroke-opacity:1"
       transform="matrix(0.26115331,0,0,0.26115331,5.8673426,291.30214)"
       id="use4849-2" />
    <rect
       style="fill:#c03630;fill-opacity:1;stroke:none;stroke-width:0.07756461;stroke-miterlimit:4;stroke-dasharray:none;stroke-dashoffset:0;stroke-opacity:1"
       id="rect5758"
       width="1.6066962"
       height="0.74521548"
       x="7.5308418"
       y="291.892"
       rx="0"
       ry="0.35068968" />
    <rect
       style="fill:#c03630;fill-opacity:1;stroke:none;stroke-width:0.04421323;stroke-miterlimit:4;stroke-dasharray:none;stroke-dashoffset:0;stroke-opacity:1"
       id="rect5758-4"
       width="1.2938505"
       height="0.30068269"
       x="7.7084184"
       y="292.83438"
       rx="0"
       ry="0.14149776" />
  </g>
</svg>
