<?xml version="1.0" encoding="UTF-8" standalone="no"?>
<svg
   xmlns:dc="http://purl.org/dc/elements/1.1/"
   xmlns:cc="http://creativecommons.org/ns#"
   xmlns:rdf="http://www.w3.org/1999/02/22-rdf-syntax-ns#"
   xmlns:svg="http://www.w3.org/2000/svg"
   xmlns="http://www.w3.org/2000/svg"
   xmlns:sodipodi="http://sodipodi.sourceforge.net/DTD/sodipodi-0.dtd"
   xmlns:inkscape="http://www.inkscape.org/namespaces/inkscape"
   viewBox="0 0 512 512"
   version="1.1"
   id="svg4"
   sodipodi:docname="launcher-symbolic.svg"
   inkscape:version="0.92.3 (2405546, 2018-03-11)">
  <metadata
     id="metadata10">
    <rdf:RDF>
      <cc:Work
         rdf:about="">
        <dc:format>image/svg+xml</dc:format>
        <dc:type
           rdf:resource="http://purl.org/dc/dcmitype/StillImage" />
      </cc:Work>
    </rdf:RDF>
  </metadata>
  <defs
     id="defs8" />
  <sodipodi:namedview
     pagecolor="#ffffff"
     bordercolor="#666666"
     borderopacity="1"
     objecttolerance="10"
     gridtolerance="10"
     guidetolerance="10"
     inkscape:pageopacity="0"
     inkscape:pageshadow="2"
     inkscape:window-width="3840"
     inkscape:window-height="2055"
     id="namedview6"
     showgrid="false"
     inkscape:zoom="1.3037281"
     inkscape:cx="-508.91166"
     inkscape:cy="256.76703"
     inkscape:window-x="0"
     inkscape:window-y="44"
     inkscape:window-maximized="1"
     inkscape:current-layer="svg4" />
  <path
     style="fill:#cccccc"
     d="M 24 32 C 10.745 32 0 42.745 0 56 L 0 216 C 0 229.255 10.745 240 24 240 L 199.99609 240 A 58.294365 58.294365 0 0 1 240 199.96484 L 240 56 C 240 42.745 229.255 32 216 32 L 24 32 z M 296 32 C 282.745 32 272 42.745 272 56 L 272 199.99609 A 58.294365 58.294365 0 0 1 312.03516 240 L 488 240 C 501.255 240 512 229.255 512 216 L 512 56 C 512 42.745 501.255 32 488 32 L 296 32 z M 313.87695 48.091797 C 322.89089 48.091797 329.24738 51.318147 334.37109 58.529297 L 334.37109 49.324219 L 341.39258 49.324219 L 341.39258 101.22656 L 334.37109 101.22656 L 334.37109 92.117188 C 328.86785 99.518105 323.17378 102.45898 314.34961 102.45898 C 298.40917 102.45898 286.54883 90.883988 286.54883 75.417969 C 286.54883 59.857066 298.31605 48.091797 313.87695 48.091797 z M 314.06641 54.542969 C 302.77526 54.542969 293.66602 63.652217 293.66602 74.943359 C 293.66602 86.803803 302.67975 96.007813 314.44531 96.007812 C 325.64157 96.007812 334.37109 86.804624 334.37109 75.039062 C 334.37109 63.463269 325.45243 54.542969 314.06641 54.542969 z M 24 272 C 10.745 272 0 282.745 0 296 L 0 456 C 0 469.255 10.745 480 24 480 L 216 480 C 229.255 480 240 469.255 240 456 L 240 312.00391 A 58.294365 58.294365 0 0 1 199.96484 272 L 24 272 z M 312.00391 272 A 58.294365 58.294365 0 0 1 272 312.03516 L 272 456 C 272 469.255 282.745 480 296 480 L 488 480 C 501.255 480 512 469.255 512 456 L 512 296 C 512 282.745 501.255 272 488 272 L 312.00391 272 z "
     id="path2" />
  <rect
     style="fill:#cccccc;fill-opacity:1"
     id="rect7"
     width="88.975609"
     height="76.70311"
     x="282.26746"
     y="44.111027" />
  <path
     style="fill:#cccccc;fill-opacity:1"
     d="M 256 205.375 A 50.624054 50.624054 0 0 0 205.375 256 A 50.624054 50.624054 0 0 0 256 306.625 A 50.624054 50.624054 0 0 0 306.625 256 A 50.624054 50.624054 0 0 0 256 205.375 z M 253.35742 228.04297 C 261.98985 228.04297 268.07752 231.13117 272.98438 238.03711 L 272.98438 229.22461 L 279.70898 229.22461 L 279.70898 278.92773 L 272.98438 278.92773 L 272.98438 270.20508 C 267.71405 277.29276 262.26124 280.10938 253.81055 280.10938 C 238.54478 280.10938 227.1875 269.02432 227.1875 254.21289 C 227.1875 239.31059 238.45512 228.04297 253.35742 228.04297 z M 253.53906 234.2207 C 242.72581 234.2207 234.00195 242.94456 234.00195 253.75781 C 234.00195 265.11627 242.63475 273.92969 253.90234 273.92969 C 264.62473 273.92969 272.98438 265.1172 272.98438 253.84961 C 272.98438 242.76375 264.44318 234.2207 253.53906 234.2207 z "
     id="path79" />
</svg>
