<?xml version="1.0" encoding="UTF-8" standalone="no"?>
<svg
   xmlns:dc="http://purl.org/dc/elements/1.1/"
   xmlns:cc="http://creativecommons.org/ns#"
   xmlns:rdf="http://www.w3.org/1999/02/22-rdf-syntax-ns#"
   xmlns:svg="http://www.w3.org/2000/svg"
   xmlns="http://www.w3.org/2000/svg"
   xmlns:sodipodi="http://sodipodi.sourceforge.net/DTD/sodipodi-0.dtd"
   xmlns:inkscape="http://www.inkscape.org/namespaces/inkscape"
   viewBox="0 0 640 512"
   version="1.1"
   id="svg4"
   sodipodi:docname="modern-symbolic.svg"
   inkscape:version="0.92.3 (2405546, 2018-03-11)">
  <metadata
     id="metadata10">
    <rdf:RDF>
      <cc:Work
         rdf:about="">
        <dc:format>image/svg+xml</dc:format>
        <dc:type
           rdf:resource="http://purl.org/dc/dcmitype/StillImage" />
      </cc:Work>
    </rdf:RDF>
  </metadata>
  <defs
     id="defs8" />
  <sodipodi:namedview
     pagecolor="#ffffff"
     bordercolor="#666666"
     borderopacity="1"
     objecttolerance="10"
     gridtolerance="10"
     guidetolerance="10"
     inkscape:pageopacity="0"
     inkscape:pageshadow="2"
     inkscape:window-width="3840"
     inkscape:window-height="2055"
     id="namedview6"
     showgrid="false"
     inkscape:zoom="1.3037281"
     inkscape:cx="-252.91166"
     inkscape:cy="258.30109"
     inkscape:window-x="0"
     inkscape:window-y="44"
     inkscape:window-maximized="1"
     inkscape:current-layer="svg4" />
  <path
     style="fill:#cccccc;stroke-width:1.15925801"
     d="M 59.327165,21.876684 C 43.133071,21.876684 30,42.889598 30,68.800149 V 444.18787 c 0,25.91055 13.133071,46.92346 29.327165,46.92346 H 587.21614 c 16.1941,0 29.32717,-21.01291 29.32717,-46.92346 V 68.800149 c 0,-25.910551 -13.13307,-46.923465 -29.32717,-46.923465 z m 43.990745,93.846926 h 190.62658 c 8.10163,0 14.66358,10.49915 14.66358,23.46174 v 70.38519 c 0,12.96261 -6.56195,23.46173 -14.66358,23.46173 H 103.31791 c -8.101626,0 -14.663579,-10.49912 -14.663579,-23.46173 v -70.38519 c 0,-12.96259 6.561953,-23.46174 14.663579,-23.46174 z m 355.2661,2.60924 c 11.75746,0 20.0485,4.20891 26.73169,13.61932 v -12.00935 h 9.15937 v 67.72938 h -9.15937 v -11.88576 c -7.17825,9.65805 -14.60422,13.49573 -26.11414,13.49573 -20.79213,0 -36.26159,-15.10554 -36.26159,-35.2884 0,-20.3067 15.34696,-35.66092 35.64404,-35.66092 z m 0.24702,8.41873 c -14.72777,0 -26.60996,11.88782 -26.60996,26.62256 0,15.47765 11.75742,27.48753 27.104,27.48753 14.60399,0 25.99063,-12.01014 25.99063,-27.36397 0,-15.10619 -11.63315,-26.74612 -26.48467,-26.74612 z M 103.31791,268.22577 h 14.66359 c 4.05081,0 7.33179,5.24867 7.33179,11.72997 v 23.46173 c 0,6.48132 -3.28098,11.73177 -7.33179,11.73177 h -14.66359 c -4.050811,0 -7.331788,-5.25045 -7.331788,-11.73177 v -23.46173 c 0,-6.4813 3.280977,-11.72997 7.331788,-11.72997 z m 58.65433,0 h 14.66359 c 4.05081,0 7.33179,5.24867 7.33179,11.72997 v 23.46173 c 0,6.48132 -3.28098,11.73177 -7.33179,11.73177 h -14.66359 c -4.05081,0 -7.33179,-5.25045 -7.33179,-11.73177 v -23.46173 c 0,-6.4813 3.28098,-11.72997 7.33179,-11.72997 z m 58.65433,0 h 14.66359 c 4.05081,0 7.33179,5.24867 7.33179,11.72997 v 23.46173 c 0,6.48132 -3.28098,11.73177 -7.33179,11.73177 h -14.66359 c -4.05081,0 -7.33179,-5.25045 -7.33179,-11.73177 v -23.46173 c 0,-6.4813 3.28098,-11.72997 7.33179,-11.72997 z m 58.65434,0 h 14.66358 c 4.05081,0 7.33179,5.24867 7.33179,11.72997 v 23.46173 c 0,6.48132 -3.28098,11.73177 -7.33179,11.73177 h -14.66358 c -4.05082,0 -7.3318,-5.25045 -7.3318,-11.73177 v -23.46173 c 0,-6.4813 3.28098,-11.72997 7.3318,-11.72997 z M 95.986122,373.80267 H 301.27628 c 4.05081,0 7.33179,5.25046 7.33179,11.73176 v 11.72997 c 0,6.4813 -3.28098,11.73177 -7.33179,11.73177 H 95.986122 c -4.050815,0 -7.331791,-5.25047 -7.331791,-11.73177 v -11.72997 c 0,-6.4813 3.280976,-11.73176 7.331791,-11.73176 z m 249.280908,0 h 205.29016 c 4.05081,0 7.33179,5.25046 7.33179,11.73176 v 11.72997 c 0,6.4813 -3.28098,11.73177 -7.33179,11.73177 H 345.26703 c -4.05082,0 -7.33179,-5.25047 -7.33179,-11.73177 v -11.72997 c 0,-6.4813 3.28097,-11.73176 7.33179,-11.73176 z"
     id="path2"
     inkscape:connector-curvature="0" />
</svg>
