<?xml version="1.0" encoding="UTF-8" standalone="no"?>
<svg
   xmlns:dc="http://purl.org/dc/elements/1.1/"
   xmlns:cc="http://creativecommons.org/ns#"
   xmlns:rdf="http://www.w3.org/1999/02/22-rdf-syntax-ns#"
   xmlns:svg="http://www.w3.org/2000/svg"
   xmlns="http://www.w3.org/2000/svg"
   xmlns:sodipodi="http://sodipodi.sourceforge.net/DTD/sodipodi-0.dtd"
   xmlns:inkscape="http://www.inkscape.org/namespaces/inkscape"
   viewBox="0 0 384 512"
   version="1.1"
   id="svg4"
   sodipodi:docname="clean-symbolic.svg"
   inkscape:version="0.92.3 (2405546, 2018-03-11)">
  <metadata
     id="metadata10">
    <rdf:RDF>
      <cc:Work
         rdf:about="">
        <dc:format>image/svg+xml</dc:format>
        <dc:type
           rdf:resource="http://purl.org/dc/dcmitype/StillImage" />
      </cc:Work>
    </rdf:RDF>
  </metadata>
  <defs
     id="defs8" />
  <sodipodi:namedview
     pagecolor="#ffffff"
     bordercolor="#666666"
     borderopacity="1"
     objecttolerance="10"
     gridtolerance="10"
     guidetolerance="10"
     inkscape:pageopacity="0"
     inkscape:pageshadow="2"
     inkscape:window-width="3840"
     inkscape:window-height="2055"
     id="namedview6"
     showgrid="false"
     inkscape:zoom="1.3037281"
     inkscape:cx="-617.01199"
     inkscape:cy="256.76703"
     inkscape:window-x="0"
     inkscape:window-y="44"
     inkscape:window-maximized="1"
     inkscape:current-layer="svg4" />
  <path
     d="M 160 0 A 160 160 0 0 0 0 160 L 0 192 L 176 192 L 176 0 L 160 0 z M 208 0 L 208 192 L 384 192 L 384 160 A 160 160 0 0 0 224 0 L 208 0 z M 0 224 L 0 352 A 160 160 0 0 0 160 512 L 224 512 A 160 160 0 0 0 384 352 L 384 224 L 0 224 z M 191.9043 349.23242 C 201.0454 349.23242 207.4915 352.50547 212.6875 359.81836 L 212.6875 350.48438 L 219.80859 350.48438 L 219.80859 403.11719 L 212.6875 403.11719 L 212.6875 393.88086 C 207.10661 401.38619 201.33343 404.36914 192.38477 404.36914 C 176.21944 404.36914 164.19141 392.62953 164.19141 376.94531 C 164.19141 361.16488 176.12386 349.23242 191.9043 349.23242 z M 192.0957 355.77734 C 180.64526 355.77734 171.4082 365.0144 171.4082 376.46484 C 171.4082 388.49262 180.54892 397.82617 192.48047 397.82617 C 203.83469 397.82617 212.6875 388.4921 212.6875 376.56055 C 212.6875 364.82144 203.64236 355.77734 192.0957 355.77734 z "
     id="path2"
     style="fill:#cccccc" />
</svg>
