<?xml version="1.0" encoding="UTF-8" standalone="no"?>
<svg
   xmlns:dc="http://purl.org/dc/elements/1.1/"
   xmlns:cc="http://creativecommons.org/ns#"
   xmlns:rdf="http://www.w3.org/1999/02/22-rdf-syntax-ns#"
   xmlns:svg="http://www.w3.org/2000/svg"
   xmlns="http://www.w3.org/2000/svg"
   xmlns:sodipodi="http://sodipodi.sourceforge.net/DTD/sodipodi-0.dtd"
   xmlns:inkscape="http://www.inkscape.org/namespaces/inkscape"
   viewBox="0 0 448 512"
   version="1.1"
   id="svg4"
   sodipodi:docname="touch-symbolic.svg"
   inkscape:version="0.92.3 (2405546, 2018-03-11)">
  <metadata
     id="metadata10">
    <rdf:RDF>
      <cc:Work
         rdf:about="">
        <dc:format>image/svg+xml</dc:format>
        <dc:type
           rdf:resource="http://purl.org/dc/dcmitype/StillImage" />
      </cc:Work>
    </rdf:RDF>
  </metadata>
  <defs
     id="defs8" />
  <sodipodi:namedview
     pagecolor="#ffffff"
     bordercolor="#666666"
     borderopacity="1"
     objecttolerance="10"
     gridtolerance="10"
     guidetolerance="10"
     inkscape:pageopacity="0"
     inkscape:pageshadow="2"
     inkscape:window-width="3840"
     inkscape:window-height="2055"
     id="namedview6"
     showgrid="false"
     inkscape:zoom="2.6074562"
     inkscape:cx="123.23776"
     inkscape:cy="256"
     inkscape:window-x="0"
     inkscape:window-y="44"
     inkscape:window-maximized="1"
     inkscape:current-layer="g16" />
  <path
     d="M400 0H48C21.5 0 0 21.5 0 48v416c0 26.5 21.5 48 48 48h352c26.5 0 48-21.5 48-48V48c0-26.5-21.5-48-48-48zM224 480c-17.7 0-32-14.3-32-32s14.3-32 32-32 32 14.3 32 32-14.3 32-32 32zm176-108c0 6.6-5.4 12-12 12H60c-6.6 0-12-5.4-12-12V60c0-6.6 5.4-12 12-12h328c6.6 0 12 5.4 12 12v312z"
     id="path2"
     style="fill:#cccccc" />
  <g
     style="fill:#cccccc"
     id="g16"
     transform="translate(-1103.9058,49.668637)">
    <path
       inkscape:connector-curvature="0"
       id="path17"
       d="m 1327.9058,371.39949 a 27.00002,27.000026 0 0 0 -27,27 27.00002,27.000026 0 0 0 27,27 27.00002,27.000026 0 0 0 27,-27 27.00002,27.000026 0 0 0 -27,-27 z m -1.5691,12.60416 c 4.7736,0 8.1392,1.70765 10.8526,5.52647 v -4.87332 h 3.7185 v 27.48538 h -3.7185 v -4.82434 c -2.9143,3.91932 -5.9286,5.47749 -10.6016,5.47749 -8.4417,0 -14.7224,-6.12976 -14.7224,-14.32014 0,-8.24062 6.2308,-14.47154 14.4714,-14.47154 z m 0.1,3.41712 c -5.9795,0 -10.8036,4.82409 -10.8036,10.80356 0,6.28097 4.7747,11.15388 11.0055,11.15388 5.9292,0 10.5511,-4.87418 10.5511,-11.10489 0,-6.13022 -4.7233,-10.85255 -10.753,-10.85255 z"
       style="fill:#cccccc;fill-opacity:1;stroke-width:0.76001966" />
  </g>
</svg>
