<?xml version="1.0" encoding="UTF-8" standalone="no"?>
<svg
   xmlns:dc="http://purl.org/dc/elements/1.1/"
   xmlns:cc="http://creativecommons.org/ns#"
   xmlns:rdf="http://www.w3.org/1999/02/22-rdf-syntax-ns#"
   xmlns:svg="http://www.w3.org/2000/svg"
   xmlns="http://www.w3.org/2000/svg"
   id="svg40"
   version="1"
   height="48"
   width="48">
  <metadata
     id="metadata46">
    <rdf:RDF>
      <cc:Work
         rdf:about="">
        <dc:format>image/svg+xml</dc:format>
        <dc:type
           rdf:resource="http://purl.org/dc/dcmitype/StillImage" />
        <dc:title></dc:title>
      </cc:Work>
    </rdf:RDF>
  </metadata>
  <defs
     id="defs44" />
  <path
     style="fill:#cccccc"
     id="rect2"
     d="M 24 4 C 12.92 4 4 12.92 4 24 C 4 35.08 12.92 44 24 44 C 35.08 44 44 35.08 44 24 C 44 12.92 35.08 4 24 4 z M 24 7 A 9 9 0 0 1 33 16 A 9 9 0 0 1 32.474609 19 L 32.4375 19 A 15 15 0 0 0 27.884766 16.929688 A 4 4 0 0 0 28 16 A 4 4 0 0 0 24 12 A 4 4 0 0 0 20 16 A 4 4 0 0 0 20.111328 16.919922 A 15 15 0 0 0 15.583984 19 L 15.527344 19 A 9 9 0 0 1 15 16 A 9 9 0 0 1 24 7 z M 24 13 A 3 3 0 0 1 27 16 A 3 3 0 0 1 24 19 A 3 3 0 0 1 21 16 A 3 3 0 0 1 24 13 z M 15.074219 19.216797 A 15 15 0 0 0 15 20.699219 A 15 15 0 0 0 15.457031 24.314453 A 4 4 0 0 0 13 28 A 4 4 0 0 0 17 32 A 4 4 0 0 0 19.337891 31.240234 A 15 15 0 0 0 23.511719 34.203125 A 9 9 0 0 1 17 37 A 9 9 0 0 1 8 28 A 9 9 0 0 1 15.074219 19.216797 z M 32.923828 19.220703 A 9 9 0 0 1 40 28 A 9 9 0 0 1 31 37 A 9 9 0 0 1 24.464844 34.171875 L 24.503906 34.103516 A 15 15 0 0 0 28.605469 31.193359 A 4 4 0 0 0 31 32 A 4 4 0 0 0 35 28 A 4 4 0 0 0 32.517578 24.300781 A 15 15 0 0 0 33 20.599609 A 15 15 0 0 0 32.923828 19.220703 z M 17 25 A 3 3 0 0 1 20 28 A 3 3 0 0 1 17 31 A 3 3 0 0 1 14 28 A 3 3 0 0 1 17 25 z M 31 25 A 3 3 0 0 1 34 28 A 3 3 0 0 1 31 31 A 3 3 0 0 1 28 28 A 3 3 0 0 1 31 25 z " />
  <path
     id="path4"
     d="m24 4c-11.08 0-20 8.92-20 20 0 0.168-0.004 0.333 0 0.5 0.2644-10.846 9.088-19.5 20-19.5s19.736 8.654 20 19.5c0.004-0.167 0-0.332 0-0.5 0-11.08-8.92-20-20-20z"
     opacity=".1"
     fill="#fff" />
</svg>
