<?xml version="1.0" encoding="UTF-8" standalone="no"?>
<svg
   xmlns:dc="http://purl.org/dc/elements/1.1/"
   xmlns:cc="http://creativecommons.org/ns#"
   xmlns:rdf="http://www.w3.org/1999/02/22-rdf-syntax-ns#"
   xmlns:svg="http://www.w3.org/2000/svg"
   xmlns="http://www.w3.org/2000/svg"
   id="svg16"
   version="1"
   height="48"
   width="48">
  <metadata
     id="metadata22">
    <rdf:RDF>
      <cc:Work
         rdf:about="">
        <dc:format>image/svg+xml</dc:format>
        <dc:type
           rdf:resource="http://purl.org/dc/dcmitype/StillImage" />
        <dc:title></dc:title>
      </cc:Work>
    </rdf:RDF>
  </metadata>
  <defs
     id="defs20" />
  <path
     id="path4"
     d="M 24 4 C 16.268014 4 10 10.268014 10 18 C 10 32 18 44 24 44 C 30 44 38 32 38 18 C 38 10.268014 31.731986 4 24 4 z M 13.472656 25.001953 C 13.640464 25.009586 13.862753 25.040693 14.158203 25.083984 C 16.635196 25.44679 18.614025 26.767986 20.0625 29.027344 C 20.83809 30.237066 22.134389 33.500213 21.988281 33.875 C 21.935141 34.01113 21.825948 34.025883 21.257812 33.970703 C 18.938577 33.744096 16.63489 32.585525 15.175781 30.912109 C 13.819519 29.356687 13.202029 27.906904 13.027344 25.873047 C 12.966709 25.167042 12.969234 24.979054 13.472656 25.001953 z M 34.527344 25.001953 C 35.030766 24.979054 35.033291 25.167042 34.972656 25.873047 C 34.797972 27.906904 34.180481 29.356687 32.824219 30.912109 C 31.36511 32.585525 29.061423 33.744096 26.742188 33.970703 C 26.174052 34.025883 26.06486 34.01113 26.011719 33.875 C 25.865612 33.500213 27.161911 30.237066 27.9375 29.027344 C 29.385976 26.767986 31.364805 25.44679 33.841797 25.083984 C 34.137247 25.040693 34.359536 25.009586 34.527344 25.001953 z "
     style="fill:#cccccc" />
</svg>
