<?xml version="1.0" encoding="UTF-8" standalone="no"?>
<svg
   xmlns:dc="http://purl.org/dc/elements/1.1/"
   xmlns:cc="http://creativecommons.org/ns#"
   xmlns:rdf="http://www.w3.org/1999/02/22-rdf-syntax-ns#"
   xmlns:svg="http://www.w3.org/2000/svg"
   xmlns="http://www.w3.org/2000/svg"
   id="svg28"
   version="1.1"
   height="48"
   width="48">
  <metadata
     id="metadata34">
    <rdf:RDF>
      <cc:Work
         rdf:about="">
        <dc:format>image/svg+xml</dc:format>
        <dc:type
           rdf:resource="http://purl.org/dc/dcmitype/StillImage" />
        <dc:title></dc:title>
      </cc:Work>
    </rdf:RDF>
  </metadata>
  <defs
     id="defs32" />
  <path
     id="path4"
     d="M 24 4 A 20 20 0 0 0 4 24 A 20 20 0 0 0 24 44 A 20 20 0 0 0 44 24 A 20 20 0 0 0 24 4 z M 24 7 A 17 17 0 0 1 41 24 A 17 17 0 0 1 24 41 A 17 17 0 0 1 7 24 A 17 17 0 0 1 24 7 z M 23.964844 9 C 22.315525 8.99089 20.77753 9.3756455 20.035156 9.7949219 C 20.036156 9.8010919 20.036062 9.8003716 20.037109 9.8066406 C 20.100199 10.184753 20.247303 10.772611 20.451172 11.464844 C 20.858909 12.849309 21.495274 14.675735 22.158203 16.480469 C 23.041712 18.885701 23.474185 19.925231 23.998047 21.240234 C 24.527988 19.926224 24.969039 18.882877 25.859375 16.476562 C 26.526858 14.672553 27.163132 12.848229 27.566406 11.466797 C 27.768043 10.776081 27.91102 10.190627 27.96875 9.8183594 C 27.181428 9.3993457 25.612602 9.0091 23.964844 9 z M 16.757812 11.152344 C 15.936261 11.381268 14.577267 12.19697 13.417969 13.369141 C 12.259556 14.540416 11.426687 15.924278 11.166016 16.777344 C 11.470067 16.999758 11.984245 17.314325 12.615234 17.660156 C 13.877213 18.351819 15.619578 19.190495 17.367188 19.994141 C 19.697723 21.065849 20.744775 21.49237 22.048828 22.046875 C 21.489345 20.746468 21.06021 19.703997 19.984375 17.378906 C 19.176997 15.634005 18.335182 13.894232 17.644531 12.626953 C 17.299206 11.993314 16.988378 11.474088 16.765625 11.162109 C 16.761725 11.156609 16.761612 11.157644 16.757812 11.152344 z M 31.242188 11.152344 C 31.238388 11.157744 31.238275 11.156709 31.234375 11.162109 C 31.011622 11.474088 30.700794 11.993314 30.355469 12.626953 C 29.664818 13.894232 28.823003 15.634005 28.015625 17.378906 C 26.93979 19.703997 26.510655 20.746468 25.951172 22.046875 C 27.255225 21.49237 28.302276 21.065849 30.632812 19.994141 C 32.380423 19.190495 34.122787 18.351819 35.384766 17.660156 C 36.015755 17.314325 36.529933 16.999758 36.833984 16.777344 C 36.573313 15.924278 35.740444 14.540416 34.582031 13.369141 C 33.422733 12.19697 32.063738 11.381268 31.242188 11.152344 z M 9.7949219 20.035156 C 9.3756451 20.777481 8.9908939 22.315525 9 23.964844 C 9.0091 25.612602 9.3993458 27.181428 9.8183594 27.96875 C 10.190627 27.91102 10.776081 27.768043 11.466797 27.566406 C 12.848229 27.163132 14.672553 26.526858 16.476562 25.859375 C 18.882877 24.969039 19.926224 24.527988 21.240234 23.998047 C 19.925231 23.474185 18.885701 23.041712 16.480469 22.158203 C 14.675735 21.495274 12.849309 20.858909 11.464844 20.451172 C 10.772611 20.247303 10.184753 20.100199 9.8066406 20.037109 C 9.8003706 20.036009 9.8010809 20.036197 9.7949219 20.035156 z M 38.205078 20.035156 C 38.198978 20.036156 38.199679 20.036062 38.193359 20.037109 C 37.815247 20.100199 37.227389 20.247303 36.535156 20.451172 C 35.150691 20.858909 33.324265 21.495274 31.519531 22.158203 C 29.114299 23.041712 28.074769 23.474185 26.759766 23.998047 C 28.073776 24.527988 29.117123 24.969039 31.523438 25.859375 C 33.327447 26.526858 35.151771 27.163132 36.533203 27.566406 C 37.223919 27.768043 37.809373 27.91102 38.181641 27.96875 C 38.600655 27.181428 38.9909 25.612602 39 23.964844 C 39.0091 22.315525 38.624355 20.777481 38.205078 20.035156 z M 22.046875 25.951172 C 20.746468 26.510655 19.703997 26.93979 17.378906 28.015625 C 15.634005 28.823003 13.894232 29.664818 12.626953 30.355469 C 11.993314 30.700794 11.474088 31.011622 11.162109 31.234375 C 11.156609 31.238275 11.157644 31.238388 11.152344 31.242188 C 11.381268 32.063738 12.19697 33.422733 13.369141 34.582031 C 14.540416 35.740444 15.924278 36.573313 16.777344 36.833984 C 16.999758 36.529933 17.314325 36.015755 17.660156 35.384766 C 18.351819 34.122787 19.190495 32.380424 19.994141 30.632812 C 21.065849 28.302277 21.49237 27.255225 22.046875 25.951172 z M 25.953125 25.951172 C 26.50763 27.255225 26.934151 28.302277 28.005859 30.632812 C 28.809506 32.380423 29.648181 34.122787 30.339844 35.384766 C 30.685675 36.015755 31.000242 36.529933 31.222656 36.833984 C 32.075722 36.573313 33.459584 35.740444 34.630859 34.582031 C 35.80303 33.422733 36.618732 32.063738 36.847656 31.242188 C 36.842256 31.238388 36.843291 31.238275 36.837891 31.234375 C 36.525912 31.011622 36.006686 30.700794 35.373047 30.355469 C 34.105768 29.664818 32.365995 28.823003 30.621094 28.015625 C 28.296003 26.93979 27.253532 26.510655 25.953125 25.951172 z M 23.998047 26.759766 C 23.474185 28.074769 23.041712 29.114299 22.158203 31.519531 C 21.495274 33.324265 20.858909 35.150691 20.451172 36.535156 C 20.247303 37.227389 20.100199 37.815247 20.037109 38.193359 C 20.036009 38.199659 20.036197 38.198858 20.035156 38.205078 C 20.777481 38.624355 22.315525 39.0091 23.964844 39 C 25.612602 38.9909 27.181475 38.600654 27.96875 38.181641 C 27.91102 37.809373 27.768043 37.223919 27.566406 36.533203 C 27.163132 35.151771 26.526858 33.327446 25.859375 31.523438 C 24.969039 29.117123 24.527988 28.073776 23.998047 26.759766 z "
     style="fill:#cccccc" />
</svg>
