<?xml version="1.0" encoding="UTF-8" standalone="no"?>
<svg
   xmlns:dc="http://purl.org/dc/elements/1.1/"
   xmlns:cc="http://creativecommons.org/ns#"
   xmlns:rdf="http://www.w3.org/1999/02/22-rdf-syntax-ns#"
   xmlns:svg="http://www.w3.org/2000/svg"
   xmlns="http://www.w3.org/2000/svg"
   id="svg12"
   version="1.1"
   height="48"
   width="48">
  <metadata
     id="metadata18">
    <rdf:RDF>
      <cc:Work
         rdf:about="">
        <dc:format>image/svg+xml</dc:format>
        <dc:type
           rdf:resource="http://purl.org/dc/dcmitype/StillImage" />
        <dc:title></dc:title>
      </cc:Work>
    </rdf:RDF>
  </metadata>
  <defs
     id="defs16" />
  <path
     id="path4"
     d="M 21.525391 10 C 16.982338 10 13.089478 12.898859 11.480469 16.904297 C 7.1818003 18.366097 4 22.354306 4 27.103516 C 4 33.045157 8.9042614 38 14.859375 38 L 33.140625 38 C 39.096192 38 44 33.044815 44 27.103516 C 44 21.161875 39.095739 16.208984 33.140625 16.208984 L 33.064453 16.208984 L 32.986328 16.210938 C 32.838713 16.215537 32.71289 16.289831 32.566406 16.300781 C 32.031502 15.983838 31.518007 15.671929 30.923828 15.462891 C 28.263597 12.328779 25.441681 10 21.525391 10 z M 21.525391 15 C 24.425791 15 26.834394 17.119897 27.302734 19.904297 C 27.470734 19.889327 27.644832 19.885 27.826172 19.875 C 29.252772 19.875 30.52341 20.546297 31.34375 21.591797 C 31.89455 21.364417 32.495155 21.228944 33.140625 21.208984 C 36.376725 21.208984 39 23.847316 39 27.103516 C 39 30.359516 36.377625 33 33.140625 33 L 14.859375 33 C 11.623275 33 9 30.359716 9 27.103516 C 9 23.847316 11.623375 21.208984 14.859375 21.208984 C 15.151485 21.239034 15.430646 21.282038 15.697266 21.335938 C 15.681006 21.191897 15.670516 21.045214 15.666016 20.896484 C 15.666016 17.640284 18.289391 15 21.525391 15 z "
     style="fill:#cccccc" />
  <path
     id="path10"
     d="M 21.525391 10 C 16.982338 10 13.089478 12.898859 11.480469 16.904297 C 7.1818003 18.366097 4 22.354306 4 27.103516 C 4 27.255616 4.0170745 27.403947 4.0234375 27.554688 C 4.2585902 23.049957 7.3491998 19.309171 11.480469 17.904297 C 13.089478 13.898859 16.982338 11 21.525391 11 C 25.441681 11 28.263597 13.328779 30.923828 16.462891 C 31.518007 16.671929 32.031502 16.983838 32.566406 17.300781 C 32.71289 17.289831 32.838713 17.215537 32.986328 17.210938 L 33.064453 17.208984 L 33.140625 17.208984 C 38.926805 17.208984 43.707269 21.888032 43.974609 27.603516 C 43.982414 27.436651 44 27.272058 44 27.103516 C 44 21.161875 39.095739 16.208984 33.140625 16.208984 L 33.064453 16.208984 L 32.986328 16.210938 C 32.838713 16.215537 32.71289 16.289831 32.566406 16.300781 C 32.031502 15.983838 31.518007 15.671929 30.923828 15.462891 C 28.263597 12.328779 25.441681 10 21.525391 10 z"
     style="opacity:0.1;fill:#ffffff" />
</svg>
