<?xml version="1.0" encoding="UTF-8" standalone="no"?>
<svg
   xmlns:dc="http://purl.org/dc/elements/1.1/"
   xmlns:cc="http://creativecommons.org/ns#"
   xmlns:rdf="http://www.w3.org/1999/02/22-rdf-syntax-ns#"
   xmlns:svg="http://www.w3.org/2000/svg"
   xmlns="http://www.w3.org/2000/svg"
   id="svg20"
   version="1"
   height="48"
   width="48">
  <metadata
     id="metadata26">
    <rdf:RDF>
      <cc:Work
         rdf:about="">
        <dc:format>image/svg+xml</dc:format>
        <dc:type
           rdf:resource="http://purl.org/dc/dcmitype/StillImage" />
        <dc:title></dc:title>
      </cc:Work>
    </rdf:RDF>
  </metadata>
  <defs
     id="defs24" />
  <path
     id="path4"
     d="M 24 3 C 22.89995 3 21.798876 3.4101275 20.976562 4.2324219 L 4.2324219 20.978516 C 2.5877929 22.623103 2.589679 25.374942 4.234375 27.019531 L 20.978516 43.765625 C 22.623145 45.410214 25.378808 45.4121 27.023438 43.767578 L 43.765625 27.021484 C 45.410253 25.376895 45.410254 22.623104 43.765625 20.978516 L 27.023438 4.2324219 C 26.201124 3.4101276 25.100051 3 24 3 z M 24 6 C 24.419066 6 24.839083 6.1554963 25.152344 6.46875 L 31.529297 12.849609 C 32.155819 13.476116 32.155819 14.523884 31.529297 15.150391 L 25.152344 21.53125 C 24.525821 22.157621 23.476131 22.155804 22.849609 21.529297 L 16.470703 15.150391 C 15.844044 14.523883 15.842227 13.476115 16.46875 12.849609 L 22.847656 6.46875 C 23.160916 6.1554963 23.580936 6 24 6 z M 14 16 C 14.418743 15.999767 14.837138 16.155489 15.150391 16.46875 L 21.53125 22.847656 C 21.844504 23.160916 22 23.580936 22 24 C 22 24.419066 21.844503 24.839083 21.53125 25.152344 L 15.150391 31.529297 C 14.523884 32.155819 13.476116 32.155819 12.849609 31.529297 L 6.46875 25.152344 C 5.8423289 24.525821 5.8441961 23.476131 6.4707031 22.849609 L 12.849609 16.470703 C 13.162863 16.157397 13.581257 16.000233 14 16 z M 34 16 C 34.418743 15.999767 34.837138 16.155489 35.150391 16.46875 L 41.53125 22.847656 C 41.844504 23.160916 42 23.580936 42 24 C 42 24.419066 41.844504 24.839083 41.53125 25.152344 L 35.150391 31.529297 C 34.523884 32.155819 33.476116 32.155819 32.849609 31.529297 L 26.46875 25.152344 C 25.842379 24.525821 25.844196 23.476131 26.470703 22.849609 L 32.849609 16.470703 C 33.162863 16.157397 33.581257 16.000233 34 16 z M 24 26 C 24.419066 26 24.839083 26.155497 25.152344 26.46875 L 31.529297 32.849609 C 32.155819 33.476116 32.155819 34.523884 31.529297 35.150391 L 25.152344 41.53125 C 24.525821 42.157621 23.476131 42.155804 22.849609 41.529297 L 16.470703 35.150391 C 15.844044 34.523883 15.842227 33.476115 16.46875 32.849609 L 22.847656 26.46875 C 23.160916 26.155496 23.580936 26 24 26 z "
     style="fill:#cccccc" />
</svg>
