<?xml version="1.0" encoding="UTF-8" standalone="no"?>
<svg
   xmlns:dc="http://purl.org/dc/elements/1.1/"
   xmlns:cc="http://creativecommons.org/ns#"
   xmlns:rdf="http://www.w3.org/1999/02/22-rdf-syntax-ns#"
   xmlns:svg="http://www.w3.org/2000/svg"
   xmlns="http://www.w3.org/2000/svg"
   id="svg12"
   xml:space="preserve"
   version="1.1"
   y="0"
   x="0"
   height="48"
   width="48"><metadata
   id="metadata18"><rdf:RDF><cc:Work
       rdf:about=""><dc:format>image/svg+xml</dc:format><dc:type
         rdf:resource="http://purl.org/dc/dcmitype/StillImage" /><dc:title></dc:title></cc:Work></rdf:RDF></metadata><defs
   id="defs16" />
 
 <path
   id="path4"
   d="M 28.992188 7.0019531 C 27.201553 7.0257328 25.740111 7.4626535 23.394531 8.2578125 C 21.559353 8.8800007 20.668703 8.9666319 19.636719 9.0664062 C 18.759187 9.151276 17.763896 9.2464408 16.183594 9.6484375 C 11.632167 10.806395 9.4919147 12.643959 8.2773438 13.849609 C 7.3291998 14.790754 6.9474599 15.749052 7 16.527344 C 6.7743758 16.640314 6.6537692 16.765931 6.4042969 16.896484 C 4.7362416 17.769133 4.1586039 18.176012 4.0253906 18.871094 C 3.9272036 19.384031 4.1088737 19.719852 4.5351562 20.179688 C 5.2230882 20.819 5.6131243 21 6.6933594 21 C 7.4815359 21 7.6969083 20.759959 8.6679688 20.546875 C 9.5274282 20.358302 10.59588 20.123224 11.408203 20.044922 C 12.439628 19.945352 13.47247 20.041525 15.029297 20.345703 C 15.49042 20.435873 16.013214 20.537302 16.585938 20.640625 C 17.322059 20.773398 18.089333 21.041016 18.867188 21.041016 C 19.528969 21.041016 20.514483 21.068702 20.992188 21.007812 C 21.338542 21.656042 21.914148 23.027012 22.841797 24.130859 C 25.26181 27.010612 27.370627 27.00383 27.660156 27.005859 C 28.183506 27.012859 28.676882 26.856035 28.917969 26.429688 C 29.159058 26.003169 29.119922 25.494534 28.808594 25.107422 C 28.802294 25.099422 28.281371 24.288723 28.033203 22.986328 C 27.962403 22.61528 27.99423 22.301983 28 22.005859 C 31.221026 22.942594 36.32485 25.796152 36.978516 28.904297 L 37 30.003906 C 36.851882 29.997906 36.403173 29.996094 36.177734 29.996094 C 35.591782 29.996094 34.958841 30.054305 34.240234 30.167969 C 31.906483 30.537147 30.54899 32.044195 30.390625 32.214844 C 30.024707 32.608714 29.937914 33.565027 30.201172 34.021484 C 30.462383 34.474713 30.976309 34.742843 31.537109 34.699219 L 31.564453 34.699219 C 35.132359 35.192383 39.658456 37.418508 41.125 40.259766 C 41.353978 40.713004 41.851617 41 42.394531 41 C 42.429371 41 42.464977 40.999114 42.5 40.996094 C 43.082786 40.956504 43.576748 40.591759 43.738281 40.082031 C 43.779434 39.950344 44.138904 38.750042 43.941406 37.080078 C 43.941406 37.080078 43.941406 37.078125 43.941406 37.078125 C 43.785579 35.766096 43.101714 34.653127 42.552734 33.759766 C 42.359342 33.445198 42.135822 33.267469 42 33.001953 C 41.98545 24.887116 38.606253 15.213558 31 11.009766 C 31.607752 10.748479 33.288457 10.583596 33.894531 10.472656 C 34.347085 10.390486 34.725712 10.110192 34.90625 9.7246094 C 35.086786 9.3390169 35.045789 8.8978761 34.796875 8.5449219 C 34.560818 8.2102313 33.296775 7.4011463 30.9375 7.1171875 C 30.222107 7.0310232 29.589066 6.9940266 28.992188 7.0019531 z M 10.5 14 A 1.5 1.5 0 0 1 12 15.5 A 1.5 1.5 0 0 1 10.5 17 A 1.5 1.5 0 0 1 9 15.5 A 1.5 1.5 0 0 1 10.5 14 z "
   style="fill:#cccccc" />
 
 
 
</svg>