<?xml version="1.0" encoding="UTF-8" standalone="no"?>
<svg
   xmlns:dc="http://purl.org/dc/elements/1.1/"
   xmlns:cc="http://creativecommons.org/ns#"
   xmlns:rdf="http://www.w3.org/1999/02/22-rdf-syntax-ns#"
   xmlns:svg="http://www.w3.org/2000/svg"
   xmlns="http://www.w3.org/2000/svg"
   id="svg12"
   version="1.1"
   height="48"
   width="48">
  <metadata
     id="metadata18">
    <rdf:RDF>
      <cc:Work
         rdf:about="">
        <dc:format>image/svg+xml</dc:format>
        <dc:type
           rdf:resource="http://purl.org/dc/dcmitype/StillImage" />
        <dc:title></dc:title>
      </cc:Work>
    </rdf:RDF>
  </metadata>
  <defs
     id="defs16" />
  <path
     id="rect4"
     d="M 6 4 C 4.892 4 4 4.892 4 6 L 4 42 C 4 43.108 4.892 44 6 44 L 42 44 C 43.108 44 44 43.108 44 42 L 44 6 C 44 4.892 43.108 4 42 4 L 6 4 z M 10.228516 11.216797 C 12.292703 13.247731 14.32651 15.311922 16.398438 17.335938 C 16.558548 17.422033 16.418668 17.439301 16.361328 17.525391 C 15.933241 17.795266 15.521373 18.845876 15.070312 18.089844 C 14.252566 17.267279 15.064544 18.202144 15.263672 18.546875 C 13.929933 19.967381 12.500333 21.323353 11.128906 22.71875 C 10.789568 23.445403 10.42222 22.559147 10.056641 22.310547 C 9.9677206 20.821206 10.045071 19.294555 10.019531 17.791016 C 10.0985 17.444519 9.8346286 16.308358 10.205078 16.589844 C 11.345026 17.62578 9.7811375 16.285905 10.056641 15.703125 C 10.473257 16.27698 10.39025 15.988028 10.113281 15.583984 C 10.644712 16.00795 10.434496 15.822009 10.046875 15.228516 C 9.981552 14.37857 10.037661 13.517914 10.019531 12.664062 C 10.10632 12.201232 9.8169403 11.481048 10.228516 11.216797 z M 37.773438 11.324219 C 38.132938 11.419068 37.9493 12.872507 37.953125 13.423828 C 38.313025 14.041023 36.465993 15.954152 37.927734 15.171875 C 38.014294 15.961185 37.943057 16.768221 37.966797 17.564453 C 38.123873 18.175074 37.570679 18.507551 37.207031 18.892578 C 37.372987 18.696741 37.612271 18.580383 37.806641 18.414062 C 38.431891 18.658958 37.369749 19.901225 36.585938 20.453125 C 36.472544 20.608754 37.276865 19.94475 37.505859 19.744141 C 37.955773 19.196518 38.038557 19.446593 37.966797 20.033203 C 37.911641 20.82624 38.089985 21.669112 37.853516 22.423828 C 33.987332 26.289529 30.079785 30.115567 26.201172 33.96875 C 25.180733 34.524841 24.095699 37.316893 22.992188 35.582031 C 22.211788 35.498987 23.091675 34.44584 22.550781 34.955078 C 22.082026 34.673753 23.430191 33.671793 23.707031 33.101562 C 23.884088 32.753106 22.523031 34.188474 22.09375 34.574219 C 21.468681 34.418023 20.465749 33.341875 20.201172 32.638672 C 19.508226 31.895081 18.348404 31.200171 18.638672 30.285156 C 20.36983 28.593818 22.021 26.816173 23.8125 25.189453 C 26.018861 23.000625 28.088761 20.660823 30.447266 18.626953 C 32.570442 16.216575 34.894085 13.993782 37.205078 11.765625 C 37.472715 11.411154 37.653604 11.292602 37.773438 11.324219 z M 24.109375 11.916016 C 24.141076 11.928264 24.160103 11.961007 24.150391 12.021484 C 23.912808 13.023272 25.152536 11.547425 24.841797 12.755859 C 25.153604 12.812282 26.105566 13.113958 26.072266 13.949219 C 26.998456 14.12897 27.465256 14.90522 26.574219 15.550781 C 26.980225 15.318862 27.737496 14.613899 26.992188 15.480469 C 26.145183 16.766948 27.197288 15.479525 27.714844 15.208984 C 28.515234 15.875505 28.998614 16.758084 29.8125 17.289062 C 27.480867 19.811145 24.950945 22.215523 22.484375 24.630859 C 20.697664 25.91176 19.578047 27.899284 17.802734 29.183594 C 16.281971 30.891843 14.617306 32.462202 13.021484 34.099609 C 12.051771 34.854853 11.22516 36.343829 10.164062 36.681641 C 10.097893 34.082499 10.097444 31.447185 10.152344 28.835938 C 10.570904 27.717129 11.742997 26.996933 12.429688 26.011719 C 12.510073 25.627411 11.220821 26.909227 10.830078 27.181641 C 9.7476201 28.495389 10.323423 26.435294 10.142578 25.728516 C 12.279893 23.507031 14.524468 21.366232 16.685547 19.158203 C 17.939882 17.814203 19.338891 16.613896 20.568359 15.25 C 21.700538 14.252618 22.714871 13.135687 23.841797 12.132812 C 23.798328 12.022817 24.014271 11.87927 24.109375 11.916016 z M 37.226562 24.962891 C 37.47654 25.046435 37.731163 25.625651 37.966797 25.689453 L 37.966797 27.740234 C 37.905832 28.198448 38.20089 29.586416 37.511719 28.613281 C 36.475173 27.702497 37.74352 28.947485 37.966797 29.373047 L 37.966797 34.613281 C 38.167177 35.904454 36.94974 34.168995 36.443359 33.943359 C 36.365906 33.9268 37.438042 35.084958 37.853516 35.486328 C 37.831429 35.84129 38.130277 36.862974 37.621094 36.777344 C 36.180274 35.464702 34.830865 34.029725 33.431641 32.664062 C 32.79203 31.971194 31.991203 31.350379 31.435547 30.626953 L 36.978516 25.082031 C 37.06019 24.96222 37.143237 24.935043 37.226562 24.962891 z "
     style="fill:#cccccc" />
</svg>
