<?xml version="1.0" encoding="UTF-8" standalone="no"?>
<svg
   xmlns:dc="http://purl.org/dc/elements/1.1/"
   xmlns:cc="http://creativecommons.org/ns#"
   xmlns:rdf="http://www.w3.org/1999/02/22-rdf-syntax-ns#"
   xmlns:svg="http://www.w3.org/2000/svg"
   xmlns="http://www.w3.org/2000/svg"
   id="svg18"
   version="1"
   height="48"
   width="48">
  <metadata
     id="metadata24">
    <rdf:RDF>
      <cc:Work
         rdf:about="">
        <dc:format>image/svg+xml</dc:format>
        <dc:type
           rdf:resource="http://purl.org/dc/dcmitype/StillImage" />
        <dc:title></dc:title>
      </cc:Work>
    </rdf:RDF>
  </metadata>
  <defs
     id="defs22" />
  <path
     style="fill:#cccccc"
     id="rect2"
     d="M 24 4 C 12.92 4 4 12.92 4 24 C 4 35.08 12.92 44 24 44 C 35.08 44 44 35.08 44 24 C 44 12.92 35.08 4 24 4 z M 24 10 C 31.732 10 38 16.268 38 24 C 38 31.732 31.732 38 24 38 C 16.268 38 10 31.732 10 24 C 10 16.268 16.268 10 24 10 z M 22.597656 12.675781 C 22.187236 12.717501 21.776396 12.746885 21.378906 12.828125 C 20.580902 12.991345 19.82317 13.205455 19.089844 13.515625 C 15.585094 14.997795 12.942074 18.071587 12 21.824219 C 12.02416 21.850579 12.050305 21.872584 12.078125 21.902344 C 12.735649 22.604612 14.456953 23.572938 15.734375 24.035156 C 16.432959 24.28799 17.787285 24.68568 18.710938 24.875 C 19.634642 25.063952 20.24725 25.250412 20.15625 25.257812 C 20.06527 25.265213 19.652876 25.57217 19.242188 25.941406 C 18.458821 26.6457 18.057294 27.268148 17.71875 28.382812 C 17.532992 28.993127 17.551189 29.196972 17.792969 29.527344 C 17.938869 29.726424 18.593277 30.192064 19.242188 30.59375 C 19.891121 30.99546 20.651229 31.550174 20.921875 31.8125 C 21.930115 32.789634 22.597656 34.536821 22.597656 36.234375 C 22.597656 36.668753 22.644061 36.897274 22.675781 36.996094 C 22.758243 37.003494 22.819644 36.988694 22.902344 36.996094 C 23.088984 36.924114 23.371562 36.839945 23.816406 36.617188 C 27.543422 34.751486 29.245985 32.340647 29.078125 29.144531 C 28.944427 26.595737 27.749464 25.671851 22.902344 24.644531 C 19.333134 23.887953 17.414062 22.605713 17.414062 20.988281 C 17.414062 20.561759 17.557451 20.309652 18.023438 19.84375 C 18.524276 19.342858 18.628479 19.309379 19.015625 19.386719 C 19.262165 19.435999 19.897225 19.760828 20.386719 20.148438 C 21.488599 21.020978 22.027772 21.367188 22.597656 21.367188 C 22.840416 21.367187 23.054688 21.329309 23.054688 21.292969 C 23.054688 21.256609 22.874861 20.97749 22.675781 20.683594 C 21.575631 19.062602 21.642739 16.027088 22.828125 13.4375 C 23.014293 13.03096 23.152413 12.753861 23.132812 12.675781 C 22.968132 12.685581 22.760876 12.658781 22.597656 12.675781 z M 34.035156 18.394531 C 33.81338 18.257651 32.008196 20.155121 31.59375 20.988281 C 30.771932 22.640503 31.081041 23.718833 33.042969 25.789062 C 33.722667 26.506237 34.540817 27.472127 34.796875 27.925781 C 35.052905 28.379507 35.272011 28.7524 35.332031 28.6875 C 35.392051 28.6226 35.570158 28.100313 35.710938 27.542969 C 36.080832 26.078609 36.109696 23.528782 35.710938 22.054688 C 35.402084 20.912869 34.321708 18.571651 34.035156 18.394531 z " />
</svg>
