<?xml version="1.0" encoding="UTF-8" standalone="no"?>
<svg
   xmlns:dc="http://purl.org/dc/elements/1.1/"
   xmlns:cc="http://creativecommons.org/ns#"
   xmlns:rdf="http://www.w3.org/1999/02/22-rdf-syntax-ns#"
   xmlns:svg="http://www.w3.org/2000/svg"
   xmlns="http://www.w3.org/2000/svg"
   id="svg10"
   version="1.1"
   height="48"
   width="48">
  <metadata
     id="metadata16">
    <rdf:RDF>
      <cc:Work
         rdf:about="">
        <dc:format>image/svg+xml</dc:format>
        <dc:type
           rdf:resource="http://purl.org/dc/dcmitype/StillImage" />
        <dc:title></dc:title>
      </cc:Work>
    </rdf:RDF>
  </metadata>
  <defs
     id="defs14" />
  <path
     id="path2"
     d="M 24.226562 4.2871094 C 13.180867 4.2871094 4.2265625 13.241414 4.2265625 24.287109 C 4.2298625 30.109118 6.7699783 35.640686 11.183594 39.4375 C 10.558668 38.322161 10.229229 37.065587 10.226562 35.787109 C 10.226562 31.644973 13.584426 28.287109 17.726562 28.287109 C 21.868699 28.287109 25.226562 31.644973 25.226562 35.787109 C 25.223862 39.823174 22.027637 43.13335 17.994141 43.277344 C 20.005049 43.941791 22.108729 44.282625 24.226562 44.287109 C 35.272258 44.287109 44.226562 35.332804 44.226562 24.287109 C 44.226562 13.241414 35.272258 4.2871094 24.226562 4.2871094 z M 24.226562 7.40625 C 33.650937 7.40625 41.226562 14.981875 41.226562 24.40625 C 41.226562 33.020262 34.87456 40.017851 26.589844 41.169922 C 27.534792 39.595575 28.225257 37.859185 28.226562 35.908203 A 3.0003 3.0003 0 0 0 28.226562 35.90625 C 28.226562 30.142794 23.490018 25.40625 17.726562 25.40625 C 13.760412 25.406297 10.399885 27.73066 8.6152344 31.007812 C 7.7384158 28.937635 7.2281439 26.707751 7.2265625 24.40625 L 7.2265625 24.404297 C 7.2276325 14.980939 14.802851 7.40625 24.226562 7.40625 z "
     style="fill:#cccccc" />
</svg>
