<?xml version="1.0" encoding="UTF-8" standalone="no"?>
<svg
   xmlns:dc="http://purl.org/dc/elements/1.1/"
   xmlns:cc="http://creativecommons.org/ns#"
   xmlns:rdf="http://www.w3.org/1999/02/22-rdf-syntax-ns#"
   xmlns:svg="http://www.w3.org/2000/svg"
   xmlns="http://www.w3.org/2000/svg"
   id="svg20"
   version="1"
   height="48"
   width="48">
  <metadata
     id="metadata26">
    <rdf:RDF>
      <cc:Work
         rdf:about="">
        <dc:format>image/svg+xml</dc:format>
        <dc:type
           rdf:resource="http://purl.org/dc/dcmitype/StillImage" />
        <dc:title></dc:title>
      </cc:Work>
    </rdf:RDF>
  </metadata>
  <defs
     id="defs24" />
  <path
     id="path4"
     d="M 24 4 C 13.32 4 4.6491094 12.288547 4.0371094 22.810547 L 4 22.845703 L 4 40 C 4 42.216 5.784 44 8 44 L 24.154297 44 L 24.15625 43.996094 C 35.16325 43.912194 44 35.0279 44 24 C 44 12.92 35.08 4 24 4 z M 13.5 12.5 L 23.5 14.5 L 31 27.5 L 23.001953 33 L 21.5 25.5 L 23.5 35.5 L 18 39.5 L 21.5 25.5 L 13.5 12.5 z M 33.115234 21 L 35 25 L 31.910156 24.517578 L 33.115234 21 z "
     style="fill:#cccccc" />
  <path
     id="path8"
     d="m 27.206,21 h 5.909825 L 31,27.5 Z"
     style="fill:#ffffff" />
  <path
     id="path14"
     d="M 24,4 C 13.32,4 4.6491094,12.288547 4.0371094,22.810547 L 4,22.845703 v 1 l 0.037109,-0.03516 C 4.6491094,13.288547 13.32,5 24,5 34.912126,5 43.72361,13.653863 43.988281,24.5 43.992346,24.333296 44,24.167719 44,24 44,12.92 35.08,4 24,4 Z"
     style="opacity:0.1;fill:#ffffff" />
</svg>
