<?xml version="1.0" encoding="UTF-8" standalone="no"?>
<svg
   xmlns:dc="http://purl.org/dc/elements/1.1/"
   xmlns:cc="http://creativecommons.org/ns#"
   xmlns:rdf="http://www.w3.org/1999/02/22-rdf-syntax-ns#"
   xmlns:svg="http://www.w3.org/2000/svg"
   xmlns="http://www.w3.org/2000/svg"
   id="svg12"
   version="1"
   height="48"
   width="48">
  <metadata
     id="metadata18">
    <rdf:RDF>
      <cc:Work
         rdf:about="">
        <dc:format>image/svg+xml</dc:format>
        <dc:type
           rdf:resource="http://purl.org/dc/dcmitype/StillImage" />
        <dc:title></dc:title>
      </cc:Work>
    </rdf:RDF>
  </metadata>
  <defs
     id="defs16" />
  <path
     id="circle4"
     d="M 24 4 A 20 20 0 0 0 21.460938 4.1875 C 21.066168 6.4853945 21.06045 8.899687 21.212891 11.177734 C 29.113803 10.07596 36.704291 12.317233 42.675781 16.865234 C 42.70773 16.949236 42.73264 17.036654 42.763672 17.121094 A 20 20 0 0 0 24 4 z M 21.046875 4.2363281 A 20 20 0 0 0 20.115234 4.4003906 C 20.423353 4.3389771 20.733737 4.2834252 21.046875 4.2363281 z M 19.675781 4.4980469 A 20 20 0 0 0 11.742188 8.2089844 C 10.680113 15.33979 12.36657 23.000872 17.111328 29.144531 C 19.407328 27.347674 21.375625 24.898619 23.015625 22.285156 C 19.826644 16.726625 18.82545 10.39966 19.675781 4.4980469 z M 11.638672 8.2851562 A 20 20 0 0 0 11.451172 8.4375 C 11.514168 8.3872471 11.5752 8.3348618 11.638672 8.2851562 z M 9.8222656 9.9160156 A 20 20 0 0 0 4 24 A 20 20 0 0 0 6.9375 34.400391 C 10.038566 33.56303 12.987469 32.151702 15.636719 30.289062 C 11.223979 24.167188 9.2432331 16.989925 9.8222656 9.9160156 z M 24.609375 12.625 C 23.541778 12.627552 22.463448 12.688037 21.376953 12.810547 C 21.868996 15.750789 22.852187 18.691897 24.492188 21.46875 C 31.806044 21.627153 38.344062 24.399559 43.369141 28.884766 A 20 20 0 0 0 44 24 A 20 20 0 0 0 43.515625 19.738281 C 38.426042 15.239958 31.773315 12.607874 24.609375 12.625 z M 43.205078 18.449219 C 43.263926 18.649171 43.310907 18.853925 43.363281 19.056641 A 20 20 0 0 0 43.205078 18.449219 z M 24.492188 23.101562 C 20.649457 29.480603 14.615448 33.828643 7.921875 35.855469 A 20 20 0 0 0 13.703125 41.117188 C 22.335725 39.344081 29.815292 33.378474 33.511719 24.734375 C 30.723676 23.754294 27.60823 23.101564 24.492188 23.101562 z M 34.988281 25.552734 C 31.466229 33.844511 24.346244 39.943648 16.076172 42.357422 A 20 20 0 0 0 24 44 A 20 20 0 0 0 42.759766 30.865234 C 40.547148 28.753666 37.916486 26.934313 34.988281 25.552734 z M 43.259766 29.314453 C 43.15889 29.683004 43.046826 30.0467 42.925781 30.40625 A 20 20 0 0 0 43.259766 29.314453 z M 7.0195312 34.542969 A 20 20 0 0 0 7.5664062 35.359375 C 7.3804724 35.089948 7.1925467 34.821964 7.0195312 34.542969 z M 14.162109 41.398438 A 20 20 0 0 0 14.5625 41.623047 C 14.427889 41.549696 14.295027 41.474488 14.162109 41.398438 z "
     style="fill:#cccccc" />
</svg>
