<?xml version="1.0" encoding="UTF-8" standalone="no"?>
<svg
   xmlns:dc="http://purl.org/dc/elements/1.1/"
   xmlns:cc="http://creativecommons.org/ns#"
   xmlns:rdf="http://www.w3.org/1999/02/22-rdf-syntax-ns#"
   xmlns:svg="http://www.w3.org/2000/svg"
   xmlns="http://www.w3.org/2000/svg"
   id="svg19"
   version="1"
   height="48"
   width="48">
  <metadata
     id="metadata25">
    <rdf:RDF>
      <cc:Work
         rdf:about="">
        <dc:format>image/svg+xml</dc:format>
        <dc:type
           rdf:resource="http://purl.org/dc/dcmitype/StillImage" />
        <dc:title></dc:title>
      </cc:Work>
    </rdf:RDF>
  </metadata>
  <defs
     id="defs23" />
  <path
     id="rect2"
     d="M 24 4 C 12.92 4 4 12.92 4 24 C 4 35.08 12.92 44 24 44 C 35.08 44 44 35.08 44 24 C 44 12.92 35.08 4 24 4 z M 24.464844 9.1894531 C 28.021346 9.2490219 31.256169 10.710439 34.177734 13.564453 C 34.570755 13.957476 35.086154 14.325056 34.570312 14.988281 C 34.472052 15.086541 34.620486 15.184947 34.71875 15.283203 C 35.922379 16.953545 36.733106 18.819747 37.101562 20.833984 C 37.150683 21.030495 37.297928 21.13026 37.445312 21.228516 C 38.45243 21.744356 38.96875 22.603313 38.96875 23.757812 C 38.96875 24.764931 39.065349 25.772179 38.917969 26.779297 C 38.67233 28.25313 37.200095 29.260736 35.775391 28.941406 C 35.382369 28.843146 35.208984 28.548445 35.208984 28.130859 C 35.208984 26.460516 35.258104 24.789485 35.208984 23.119141 C 35.061601 18.623953 33.097062 15.233888 29.191406 13.072266 C 22.755671 9.5350677 14.404047 13.539341 13.003906 20.859375 C 12.758268 22.112133 12.806641 23.438649 12.806641 24.691406 C 12.806641 25.895036 12.806935 27.073714 12.757812 28.277344 C 12.757812 28.670365 12.513589 28.941406 12.046875 28.941406 C 10.204585 29.039666 9 27.884431 9 26.017578 C 9.049128 25.722811 9.0488281 25.354557 9.0488281 24.863281 C 9.0979561 24.396567 8.9994003 23.855984 9.0976562 23.291016 C 9.2450397 22.382153 9.761657 21.670366 10.572266 21.277344 C 10.768777 21.179084 10.866888 21.08075 10.916016 20.810547 C 11.259911 18.845438 12.070934 17.027465 13.25 15.40625 C 13.397383 15.209739 13.495347 15.111999 13.298828 14.841797 C 13.102317 14.54703 13.24881 14.226107 13.445312 13.980469 C 15.115659 12.113615 17.082448 10.738043 19.416016 9.9765625 C 21.166191 9.4238754 22.848252 9.1623764 24.464844 9.1894531 z M 16.806641 24.003906 C 17.086442 24.023859 17.383938 24.117389 17.685547 24.291016 C 18.513493 24.694279 20.026422 25.814221 21.185547 26.867188 C 22.297361 27.875346 23.126308 28.838694 22.984375 29.533203 C 22.842441 30.227713 22.36917 30.652917 21.730469 30.876953 C 21.233701 31.078589 18.938828 30.965881 18.371094 30.988281 C 17.353902 30.898668 16.526937 30.518268 15.935547 29.644531 C 15.107601 28.412337 14.823554 27.023554 15.107422 25.544922 C 15.284838 24.536766 15.967236 23.944048 16.806641 24.003906 z M 30.492188 26 C 31.349886 26.000329 31.956815 26.574703 31.996094 27.480469 C 32.040984 28.467484 31.727085 29.406064 31.076172 30.152344 C 30.559932 30.754182 29.863613 31.042281 28.943359 30.994141 C 28.247556 30.945995 27.596193 30.801378 26.900391 30.705078 C 26.653493 30.656931 26.428601 30.609329 26.271484 30.537109 C 25.036996 30.127859 24.610901 29.044426 25.396484 28.25 C 25.957615 27.720382 26.653869 27.311639 27.439453 26.974609 C 28.314818 26.63758 29.146183 26.179597 30.111328 26.035156 C 30.243194 26.011083 30.369659 25.999953 30.492188 26 z "
     style="fill:#cccccc" />
  <style
     type="text/css"
     id="style828">
  .st0{fill:#1C2437;}
 </style>
</svg>
