<?xml version="1.0" encoding="UTF-8" standalone="no"?>
<svg
   xmlns:dc="http://purl.org/dc/elements/1.1/"
   xmlns:cc="http://creativecommons.org/ns#"
   xmlns:rdf="http://www.w3.org/1999/02/22-rdf-syntax-ns#"
   xmlns:svg="http://www.w3.org/2000/svg"
   xmlns="http://www.w3.org/2000/svg"
   id="svg18"
   version="1.1"
   height="48"
   width="48">
  <metadata
     id="metadata24">
    <rdf:RDF>
      <cc:Work
         rdf:about="">
        <dc:format>image/svg+xml</dc:format>
        <dc:type
           rdf:resource="http://purl.org/dc/dcmitype/StillImage" />
        <dc:title></dc:title>
      </cc:Work>
    </rdf:RDF>
  </metadata>
  <defs
     id="defs22" />
  <path
     id="path4"
     d="M 24 4 C 14.002859 4 6.0058594 9.9999996 6.0058594 16.386719 L 6.0058594 24 C 6.0058594 25.68993 5.8685267 28.599008 6.9902344 29.953125 C 8.8559636 33.054424 12.854232 39.765699 14.388672 42.837891 C 14.88945 43.756767 16.001754 43.999999 17.404297 44 L 24 44 L 30.595703 44 C 31.998247 43.999999 33.110549 43.756767 33.611328 42.837891 C 35.145767 39.765699 39.144036 33.054424 41.009766 29.953125 C 42.131473 28.599008 41.994141 25.68993 41.994141 24 L 41.994141 16.386719 C 41.994141 9.9999996 33.997141 4 24 4 z M 10 21 L 24 21 L 38 21 L 38 23 C 34.827095 23 33.785473 24.231268 32 27 C 30.430171 29.689285 30.280346 34.044652 29.496094 36 C 28.39233 32.226163 29 25 24 25 C 19 25 19.60767 32.226163 18.503906 36 C 17.719654 34.044652 17.569829 29.689285 16 27 C 14.766675 24.927058 12.98007 22.537158 10 23 L 10 21 z M 24 27.119141 C 27.843623 27.119141 27.376118 32.673177 28.224609 35.574219 L 29.070312 41.724609 L 24 41.724609 L 18.929688 41.724609 L 19.775391 35.574219 C 20.623881 32.673177 20.156377 27.119141 24 27.119141 z M 24 28.75 C 21.015681 28.75 21.377545 33.063939 20.71875 35.316406 L 20.0625 40.091797 L 24 40.091797 L 27.9375 40.091797 L 27.28125 35.316406 C 26.622453 33.06394 26.984319 28.75 24 28.75 z "
     style="fill:#cccccc" />
</svg>
