<?xml version="1.0" encoding="UTF-8" standalone="no"?>
<svg
   xmlns:dc="http://purl.org/dc/elements/1.1/"
   xmlns:cc="http://creativecommons.org/ns#"
   xmlns:rdf="http://www.w3.org/1999/02/22-rdf-syntax-ns#"
   xmlns:svg="http://www.w3.org/2000/svg"
   xmlns="http://www.w3.org/2000/svg"
   id="svg20"
   version="1.1"
   height="48"
   width="48">
  <metadata
     id="metadata26">
    <rdf:RDF>
      <cc:Work
         rdf:about="">
        <dc:format>image/svg+xml</dc:format>
        <dc:type
           rdf:resource="http://purl.org/dc/dcmitype/StillImage" />
        <dc:title></dc:title>
      </cc:Work>
    </rdf:RDF>
  </metadata>
  <defs
     id="defs24" />
  <path
     id="circle4"
     d="M 24 4 A 20 20 0 0 0 4 24 A 20 20 0 0 0 24 44 A 20 20 0 0 0 44 24 A 20 20 0 0 0 24 4 z M 24 10 A 14 14 0 0 1 38 24 A 14 14 0 0 1 24 38 A 14 14 0 0 1 10 24 A 14 14 0 0 1 24 10 z M 19.400391 17 C 16.426898 17.000988 14 19.233945 14 22 C 14 23.4396 14.651858 24.752283 15.697266 25.666016 L 23.865234 33 L 32.302734 25.666016 C 33.348485 24.752681 34 23.440001 34 22 C 34 19.233334 31.572048 17 28.597656 17 C 26.637586 17 24.941463 17.961348 24 19.416016 C 23.057428 17.961839 21.361576 17.000649 19.402344 17 L 19.400391 17 z "
     style="fill:#cccccc" />
</svg>
