<?xml version="1.0" encoding="UTF-8" standalone="no"?>
<svg
   xmlns:dc="http://purl.org/dc/elements/1.1/"
   xmlns:cc="http://creativecommons.org/ns#"
   xmlns:rdf="http://www.w3.org/1999/02/22-rdf-syntax-ns#"
   xmlns:svg="http://www.w3.org/2000/svg"
   xmlns="http://www.w3.org/2000/svg"
   id="svg14"
   version="1.1"
   height="48"
   width="48">
  <metadata
     id="metadata20">
    <rdf:RDF>
      <cc:Work
         rdf:about="">
        <dc:format>image/svg+xml</dc:format>
        <dc:type
           rdf:resource="http://purl.org/dc/dcmitype/StillImage" />
        <dc:title></dc:title>
      </cc:Work>
    </rdf:RDF>
  </metadata>
  <defs
     id="defs18" />
  <path
     id="path4"
     d="M 16 6 C 9 8 4.0101 16.043 4 24 C 4 35.046 12.954 44 24 44 C 35.046 44 44 35.046 44 24 C 43.997 16.024 39 8 32 6 C 32.697 6.7235 32.998 7.1795 33 8 C 33 10.761 28.971 13 24 13 C 19.029 13 15 10.761 15 8 C 15.002 7.1914 15.322 6.7156 16 6 z M 15 16 C 20 17 24 21 24 21 C 24 21 29 17 33 16 C 38 16 41.970703 24.154297 41.970703 24.154297 C 41.986703 24.436297 41.997 24.718 42 25 C 42 34.941 33.941 43 24 43 C 14.059 43 6 34.941 6 25 C 6 25 9 16 15 16 z M 14.984375 23 A 4 5 0 0 0 11.144531 26.6875 L 15 29 L 11.085938 29 A 4 5 0 0 0 12.712891 32.089844 A 4 0.5 0 0 1 15 32 A 4 0.5 0 0 1 17.294922 32.091797 A 4 5 0 0 0 19 28 A 4 5 0 0 0 15 23 A 4 5 0 0 0 14.984375 23 z M 32.984375 23 A 4 5 0 0 0 29.144531 26.6875 L 33 29 L 29.085938 29 A 4 5 0 0 0 30.712891 32.089844 A 4 0.5 0 0 1 33 32 A 4 0.5 0 0 1 35.294922 32.091797 A 4 5 0 0 0 37 28 A 4 5 0 0 0 33 23 A 4 5 0 0 0 32.984375 23 z "
     style="fill:#cccccc" />
</svg>
