<?xml version="1.0" encoding="UTF-8" standalone="no"?>
<svg
   xmlns:dc="http://purl.org/dc/elements/1.1/"
   xmlns:cc="http://creativecommons.org/ns#"
   xmlns:rdf="http://www.w3.org/1999/02/22-rdf-syntax-ns#"
   xmlns:svg="http://www.w3.org/2000/svg"
   xmlns="http://www.w3.org/2000/svg"
   id="svg16"
   version="1"
   height="48"
   width="48">
  <metadata
     id="metadata22">
    <rdf:RDF>
      <cc:Work
         rdf:about="">
        <dc:format>image/svg+xml</dc:format>
        <dc:type
           rdf:resource="http://purl.org/dc/dcmitype/StillImage" />
        <dc:title></dc:title>
      </cc:Work>
    </rdf:RDF>
  </metadata>
  <defs
     id="defs20" />
  <path
     style="fill:#cccccc"
     id="path2"
     d="M 24 4 C 12.889 4 4 12.889 4 24 C 4 35.111 12.8889 44 24 44 C 25.7778 44 27.333984 42.443716 27.333984 40.666016 C 27.333984 39.777126 27.111982 39.111913 26.445312 38.445312 C 26.001313 37.778312 25.556641 37.109703 25.556641 36.220703 C 25.556641 34.442903 27.112925 32.888672 28.890625 32.888672 L 32.890625 32.888672 C 39.112625 32.888672 44 27.999344 44 21.777344 C 44 11.999344 35.111 4 24 4 z M 18 9 C 19.6 9 21 10.4 21 12 C 21 13.6 19.6 15 18 15 C 16.4 15 15 13.6 15 12 C 15 10.4 16.4 9 18 9 z M 29 9 C 30.6 9 32 10.4 32 12 C 32 13.6 30.6 15 29 15 C 27.4 15 26 13.6 26 12 C 26 10.4 27.4 9 29 9 z M 11 18 C 12.6 18 14 19.4 14 21 C 14 22.6 12.6 24 11 24 C 9.4 24 8 22.6 8 21 C 8 19.4 9.4 18 11 18 z M 36 18 C 37.6 18 39 19.4 39 21 C 39 22.6 37.6 24 36 24 C 34.4 24 33 22.6 33 21 C 33 19.4 34.4 18 36 18 z " />
</svg>
