<?xml version="1.0" encoding="UTF-8" standalone="no"?>
<svg
   xmlns:dc="http://purl.org/dc/elements/1.1/"
   xmlns:cc="http://creativecommons.org/ns#"
   xmlns:rdf="http://www.w3.org/1999/02/22-rdf-syntax-ns#"
   xmlns:svg="http://www.w3.org/2000/svg"
   xmlns="http://www.w3.org/2000/svg"
   xmlns:sodipodi="http://sodipodi.sourceforge.net/DTD/sodipodi-0.dtd"
   xmlns:inkscape="http://www.inkscape.org/namespaces/inkscape"
   id="svg14"
   version="1.1"
   width="48"
   height="48"
   sodipodi:docname="peaks-symbolic.svg"
   inkscape:version="0.92.4 (5da689c313, 2019-01-14)">
  <sodipodi:namedview
     pagecolor="#ffffff"
     bordercolor="#666666"
     borderopacity="1"
     objecttolerance="10"
     gridtolerance="10"
     guidetolerance="10"
     inkscape:pageopacity="0"
     inkscape:pageshadow="2"
     inkscape:window-width="1500"
     inkscape:window-height="905"
     id="namedview7"
     showgrid="false"
     inkscape:zoom="4.9166667"
     inkscape:cx="24"
     inkscape:cy="24"
     inkscape:window-x="0"
     inkscape:window-y="40"
     inkscape:window-maximized="0"
     inkscape:current-layer="svg14" />
  <metadata
     id="metadata20">
    <rdf:RDF>
      <cc:Work
         rdf:about="">
        <dc:format>image/svg+xml</dc:format>
        <dc:type
           rdf:resource="http://purl.org/dc/dcmitype/StillImage" />
        <dc:title />
      </cc:Work>
    </rdf:RDF>
  </metadata>
  <defs
     id="defs18" />
  <path
     style="fill:#cccccc;stroke-width:2.21571302"
     d="m 19.526876,12.921772 c -0.371729,0.01434 -0.711451,0.214273 -0.904461,0.532291 L 6.4359935,33.39548 c -0.4479838,0.737066 0.080885,1.680782 0.943409,1.683423 H 40.615099 c 0.800845,0.0019 1.339084,-0.820381 1.016977,-1.553596 L 33.87708,15.799602 c -0.183869,-0.419553 -0.606966,-0.6827 -1.06458,-0.662117 -0.425126,0.01888 -0.801875,0.279577 -0.969374,0.670773 L 27.463629,25.960725 20.5352,13.493011 c -0.201795,-0.365025 -0.591487,-0.585794 -1.008324,-0.571239 z m 0.04223,3.32357 3.034667,5.539283 h -3.037951 l -2.215713,2.215713 -1.601199,-1.601199 z m 13.294279,2.215713 2.580273,6.461055 -2.583557,1.293941 -2.548937,-1.272305 z m -18.096832,5.539283 h 0.367843 l 2.215713,2.215713 2.215713,-2.215713 h 4.271306 l 2.726366,4.903131 c 0.03,0.07305 0.06771,0.142692 0.112514,0.207723 l 2.08589,3.751998 H 9.3527713 Z m 21.473377,2.739348 2.678761,6.123504 h -7.620839 l -2.479695,-4.457392 0.709722,-1.640146 3.332224,1.666112 z"
     id="path10" />
</svg>
