<?xml version="1.0" encoding="UTF-8" standalone="no"?>
<svg
   xmlns:dc="http://purl.org/dc/elements/1.1/"
   xmlns:cc="http://creativecommons.org/ns#"
   xmlns:rdf="http://www.w3.org/1999/02/22-rdf-syntax-ns#"
   xmlns:svg="http://www.w3.org/2000/svg"
   xmlns="http://www.w3.org/2000/svg"
   id="svg18"
   version="1"
   height="48"
   width="48">
  <metadata
     id="metadata24">
    <rdf:RDF>
      <cc:Work
         rdf:about="">
        <dc:format>image/svg+xml</dc:format>
        <dc:type
           rdf:resource="http://purl.org/dc/dcmitype/StillImage" />
        <dc:title></dc:title>
      </cc:Work>
    </rdf:RDF>
  </metadata>
  <defs
     id="defs22" />
  <path
     id="rect4"
     d="M 16 4 C 9.352 4 4 9.352 4 16 L 4 32 C 4 38.648 9.352 44 16 44 L 32 44 C 38.648 44 44 38.648 44 32 L 44 16 C 44 9.352 38.648 4 32 4 L 16 4 z M 28.490234 11.019531 C 28.868506 10.961126 29.252379 11.036042 29.658203 11.234375 C 30.308818 11.552343 31.192587 12.36749 31.623047 13.046875 C 32.427957 14.317247 36.595055 22.774984 37.591797 25 L 28.707031 25 L 28.431641 24.726562 L 23.09375 18.414062 L 24.744141 15.371094 C 26.265701 12.565837 27.355419 11.194749 28.490234 11.019531 z M 18.623047 17.615234 C 19.169397 17.541202 19.655669 17.830977 20.457031 18.59375 C 22.123002 20.187102 24.764933 23.265691 26.017578 25 L 10.746094 25 C 11.975822 23.172766 14.377381 20.417258 16.429688 18.820312 C 17.47168 18.12704 18.076697 17.689264 18.623047 17.615234 z M 10.357422 27 L 26.53125 27 C 26.187936 27.797023 25.526609 29.213957 24.578125 31.117188 C 20.884449 38.528914 19.706208 39.802186 17.646484 38.609375 C 16.425186 37.902107 15.366387 36.372715 13.322266 32.367188 C 12.387252 30.534992 11.256646 28.466244 10.810547 27.771484 C 10.633972 27.496484 10.490977 27.241817 10.357422 27 z M 28.796875 27 L 37.142578 27 L 35.705078 29.035156 C 33.261535 32.494359 32.620398 34.044722 30.371094 34.185547 C 29.385435 34.247257 27.752722 33.213847 26.292969 31.964844 L 28.796875 27 z "
     style="fill:#cccccc" />
</svg>
