<?xml version="1.0" encoding="UTF-8" standalone="no"?>
<svg
   xmlns:dc="http://purl.org/dc/elements/1.1/"
   xmlns:cc="http://creativecommons.org/ns#"
   xmlns:rdf="http://www.w3.org/1999/02/22-rdf-syntax-ns#"
   xmlns:svg="http://www.w3.org/2000/svg"
   xmlns="http://www.w3.org/2000/svg"
   id="svg12"
   version="1"
   height="48"
   width="48">
  <metadata
     id="metadata18">
    <rdf:RDF>
      <cc:Work
         rdf:about="">
        <dc:format>image/svg+xml</dc:format>
        <dc:type
           rdf:resource="http://purl.org/dc/dcmitype/StillImage" />
        <dc:title></dc:title>
      </cc:Work>
    </rdf:RDF>
  </metadata>
  <defs
     id="defs16" />
  <path
     id="circle4"
     d="M 24 4 A 20 20 0 0 0 4 24 A 20 20 0 0 0 24 44 A 20 20 0 0 0 44 24 A 20 20 0 0 0 24 4 z M 24 12 C 24.734024 12.002611 25.46626 12.072566 26.1875 12.208984 L 20.535156 22 L 16.355469 14.761719 C 18.504798 12.979906 21.208144 12.0033 24 12 z M 28.177734 12.765625 C 31.50474 14.004923 34.112189 16.65385 35.298828 20 L 24 20 L 28.177734 12.765625 z M 14.880859 16.207031 L 20.535156 26 L 12.169922 26 C 12.05753 25.339249 12.000688 24.670242 12 24 C 12.001694 21.142175 13.023253 18.378773 14.880859 16.207031 z M 27.464844 22 L 35.830078 22 C 35.94247 22.660751 35.999312 23.329758 36 24 C 35.998306 26.857825 34.976747 29.621227 33.119141 31.792969 L 27.464844 22 z M 27.464844 26 L 31.644531 33.238281 C 29.495202 35.020094 26.791856 35.9967 24 36 C 23.265976 35.997389 22.53374 35.927434 21.8125 35.791016 L 27.464844 26 z M 12.701172 28 L 24 28 L 19.822266 35.234375 C 16.49526 33.995077 13.887811 31.34615 12.701172 28 z "
     style="fill:#cccccc" />
</svg>
