<?xml version="1.0" encoding="UTF-8" standalone="no"?>
<svg
   xmlns:dc="http://purl.org/dc/elements/1.1/"
   xmlns:cc="http://creativecommons.org/ns#"
   xmlns:rdf="http://www.w3.org/1999/02/22-rdf-syntax-ns#"
   xmlns:svg="http://www.w3.org/2000/svg"
   xmlns="http://www.w3.org/2000/svg"
   id="svg25"
   version="1.1"
   height="48"
   width="48">
  <metadata
     id="metadata29">
    <rdf:RDF>
      <cc:Work
         rdf:about="">
        <dc:format>image/svg+xml</dc:format>
        <dc:type
           rdf:resource="http://purl.org/dc/dcmitype/StillImage" />
        <dc:title></dc:title>
      </cc:Work>
    </rdf:RDF>
  </metadata>
  <defs
     id="defs7">
    <linearGradient
       gradientUnits="userSpaceOnUse"
       gradientTransform="matrix(0.11765,0,0,0.11765,-24.07,-85.62)"
       y2="506.8"
       y1="540.8"
       x2="409.57"
       x1="409.57"
       id="linearGradient4282">
      <stop
         id="stop2"
         stop-color="#2a2c2f"
         offset="0" />
      <stop
         id="stop4"
         stop-color="#424649"
         offset="1" />
    </linearGradient>
  </defs>
  <path
     id="rect9"
     d="M 24 4 C 12.92 4 4 12.92 4 24 C 4 35.08 12.92 44 24 44 C 35.08 44 44 35.08 44 24 C 44 12.92 35.08 4 24 4 z M 24 17 C 27.878 17 31 20.122 31 24 C 31 27.878 27.878 31 24 31 C 20.122 31 17 27.878 17 24 C 17 20.122 20.122 17 24 17 z M 24 18 C 20.676 18 18 20.676 18 24 C 18 27.324 20.676 30 24 30 C 27.324 30 30 27.324 30 24 C 30 20.676 27.324 18 24 18 z M 24 19 C 26.77 19 29 21.23 29 24 C 29 26.77 26.77 29 24 29 C 21.23 29 19 26.77 19 24 C 19 21.23 21.23 19 24 19 z M 24 22 C 22.892 22 22 22.892 22 24 C 22 25.108 22.892 26 24 26 C 25.108 26 26 25.108 26 24 C 26 22.892 25.108 22 24 22 z "
     style="fill:#cccccc" />
</svg>
