<?xml version="1.0" encoding="UTF-8" standalone="no"?>
<svg
   xmlns:dc="http://purl.org/dc/elements/1.1/"
   xmlns:cc="http://creativecommons.org/ns#"
   xmlns:rdf="http://www.w3.org/1999/02/22-rdf-syntax-ns#"
   xmlns:svg="http://www.w3.org/2000/svg"
   xmlns="http://www.w3.org/2000/svg"
   id="svg20"
   version="1.1"
   height="48"
   width="48">
  <metadata
     id="metadata26">
    <rdf:RDF>
      <cc:Work
         rdf:about="">
        <dc:format>image/svg+xml</dc:format>
        <dc:type
           rdf:resource="http://purl.org/dc/dcmitype/StillImage" />
        <dc:title></dc:title>
      </cc:Work>
    </rdf:RDF>
  </metadata>
  <defs
     id="defs24" />
  <path
     id="circle4"
     d="M 24 4 A 20 20 0 0 0 4 24 A 20 20 0 0 0 24 44 A 20 20 0 0 0 44 24 A 20 20 0 0 0 24 4 z M 24 7 A 17 17 0 0 1 36.027344 12 L 28.228516 12 L 22 23.904297 L 28.228516 36 L 36.025391 36 A 17 17 0 0 1 24 41 A 17 17 0 0 1 7 24 A 17 17 0 0 1 24 7 z M 32 19 L 32 24 L 35.5 21.5 L 39 19 L 39 24 L 39 29 L 35.5 26.5 L 32 24 L 32 29 L 28.5 26.5 L 25 24 L 28.5 21.5 L 32 19 z "
     style="fill:#cccccc" />
</svg>
