<?xml version="1.0" encoding="UTF-8" standalone="no"?>
<svg
   xmlns:dc="http://purl.org/dc/elements/1.1/"
   xmlns:cc="http://creativecommons.org/ns#"
   xmlns:rdf="http://www.w3.org/1999/02/22-rdf-syntax-ns#"
   xmlns:svg="http://www.w3.org/2000/svg"
   xmlns="http://www.w3.org/2000/svg"
   id="svg28"
   version="1"
   height="48"
   width="48">
  <metadata
     id="metadata34">
    <rdf:RDF>
      <cc:Work
         rdf:about="">
        <dc:format>image/svg+xml</dc:format>
        <dc:type
           rdf:resource="http://purl.org/dc/dcmitype/StillImage" />
        <dc:title></dc:title>
      </cc:Work>
    </rdf:RDF>
  </metadata>
  <defs
     id="defs32" />
  <g
     transform="translate(0,-2)"
     style="fill:#cccccc"
     id="g93">
    <path
       style="fill:#cccccc"
       d="M 23.986328,7.8769531 A 19.97002,19.989605 0 0 0 4.2578125,24.869141 H 43.705078 A 19.97002,19.989605 0 0 0 23.986328,7.8769531 Z m 0,2.3398439 a 14.47297,14.487164 0 0 1 14.289063,12.3125 H 9.6875 a 14.47297,14.487164 0 0 1 14.298828,-12.3125 z"
       id="path16-3" />
    <path
       style="fill:#cccccc"
       d="M 23.987157,44.001023 A 19.97002,19.989605 0 0 1 4.2586421,27.008835 H 43.705907 a 19.97002,19.989605 0 0 1 -19.71875,16.992188 z m 0,-2.339844 A 14.47297,14.487164 0 0 0 38.27622,29.348679 H 9.6883297 a 14.47297,14.487164 0 0 0 14.2988273,12.3125 z"
       id="path16-3-5" />
  </g>
</svg>
