<?xml version="1.0" encoding="UTF-8" standalone="no"?>
<svg
   xmlns:dc="http://purl.org/dc/elements/1.1/"
   xmlns:cc="http://creativecommons.org/ns#"
   xmlns:rdf="http://www.w3.org/1999/02/22-rdf-syntax-ns#"
   xmlns:svg="http://www.w3.org/2000/svg"
   xmlns="http://www.w3.org/2000/svg"
   id="svg18"
   version="1"
   height="48"
   width="48">
  <metadata
     id="metadata24">
    <rdf:RDF>
      <cc:Work
         rdf:about="">
        <dc:format>image/svg+xml</dc:format>
        <dc:type
           rdf:resource="http://purl.org/dc/dcmitype/StillImage" />
        <dc:title></dc:title>
      </cc:Work>
    </rdf:RDF>
  </metadata>
  <defs
     id="defs22" />
  <path
     id="rect2"
     d="M 24 4 C 12.92 4 4 12.92 4 24 C 4 35.08 12.92 44 24 44 C 35.08 44 44 35.08 44 24 C 44 12.92 35.08 4 24 4 z M 17.728516 13 L 30.271484 13 A 4.742515 4.742515 0 0 1 35 17.728516 L 35 30.271484 A 4.742515 4.742515 0 0 1 30.271484 35 L 17.728516 35 A 4.742515 4.742515 0 0 1 13 30.271484 L 13 17.728516 A 4.742515 4.742515 0 0 1 17.728516 13 z M 23.837891 18.001953 A 6 6 0 0 0 23.75 18.005859 A 6 6 0 0 0 24 30 A 6 6 0 0 0 30 24.013672 A 6 6 0 0 0 23.837891 18.001953 z M 24.058594 20 A 4 4 0 0 1 26.828125 21.171875 A 4 4 0 0 1 27.333984 21.789062 C 27.189056 21.571031 27.020374 21.364124 26.828125 21.171875 C 27.032288 21.376038 27.206626 21.597109 27.357422 21.830078 A 4 4 0 0 1 27.699219 22.478516 C 27.703225 22.488272 27.707011 22.498031 27.710938 22.507812 A 4 4 0 0 1 27.710938 22.509766 A 4 4 0 0 1 27.916016 23.197266 C 27.871395 22.978689 27.805883 22.762959 27.724609 22.552734 C 27.881225 22.956758 27.960024 23.381618 27.980469 23.808594 C 27.972541 23.622326 27.964528 23.435786 27.929688 23.251953 A 4 4 0 0 1 27.996094 23.951172 A 4 4 0 0 1 27.996094 23.966797 C 27.99623 23.983193 27.998111 23.999228 27.998047 24.015625 A 4 4 0 0 1 27.998047 24.023438 A 4 4 0 0 1 27.933594 24.699219 C 27.964804 24.522741 27.976138 24.344392 27.984375 24.166016 C 27.975546 24.378825 27.958656 24.591296 27.916016 24.800781 A 4 4 0 0 1 27.730469 25.427734 C 27.71476 25.468887 27.700711 25.510062 27.683594 25.550781 A 4 4 0 0 1 27.375 26.136719 C 27.219864 26.381494 27.041617 26.614633 26.828125 26.828125 C 27.011336 26.644914 27.170312 26.447016 27.310547 26.240234 A 4 4 0 0 1 26.828125 26.828125 A 4 4 0 0 1 26.210938 27.333984 C 26.42897 27.189056 26.635876 27.020374 26.828125 26.828125 C 26.623962 27.032288 26.402891 27.206626 26.169922 27.357422 A 4 4 0 0 1 25.521484 27.699219 C 25.511728 27.703225 25.501969 27.707011 25.492188 27.710938 C 25.491605 27.711171 25.490817 27.710704 25.490234 27.710938 A 4 4 0 0 1 24.802734 27.916016 C 25.021311 27.871395 25.237041 27.805883 25.447266 27.724609 C 25.043242 27.881225 24.618382 27.960024 24.191406 27.980469 C 24.377674 27.972541 24.564214 27.964528 24.748047 27.929688 A 4 4 0 0 1 24.048828 27.996094 C 24.043642 27.996157 24.038389 27.996051 24.033203 27.996094 C 24.016807 27.99623 24.000772 27.998111 23.984375 27.998047 A 4 4 0 0 1 23.976562 27.998047 A 4 4 0 0 1 23.300781 27.933594 C 23.477259 27.964804 23.655608 27.976138 23.833984 27.984375 C 23.621175 27.975546 23.408704 27.958656 23.199219 27.916016 A 4 4 0 0 1 22.572266 27.730469 C 22.531113 27.71476 22.489938 27.700711 22.449219 27.683594 A 4 4 0 0 1 21.863281 27.375 C 21.618506 27.219864 21.385367 27.041617 21.171875 26.828125 C 21.355086 27.011336 21.552984 27.170312 21.759766 27.310547 A 4 4 0 0 1 21.171875 26.828125 A 4 4 0 0 1 21.171875 21.171875 A 4 4 0 0 1 24.058594 20 z "
     style="fill:#cccccc" />
</svg>
