<?xml version="1.0" encoding="UTF-8" standalone="no"?>
<svg
   xmlns:dc="http://purl.org/dc/elements/1.1/"
   xmlns:cc="http://creativecommons.org/ns#"
   xmlns:rdf="http://www.w3.org/1999/02/22-rdf-syntax-ns#"
   xmlns:svg="http://www.w3.org/2000/svg"
   xmlns="http://www.w3.org/2000/svg"
   xmlns:sodipodi="http://sodipodi.sourceforge.net/DTD/sodipodi-0.dtd"
   xmlns:inkscape="http://www.inkscape.org/namespaces/inkscape"
   id="svg18"
   version="1"
   height="48"
   width="48"
   sodipodi:docname="step-symbolic.svg"
   inkscape:version="0.92.4 (5da689c313, 2019-01-14)">
  <sodipodi:namedview
     pagecolor="#ffffff"
     bordercolor="#666666"
     borderopacity="1"
     objecttolerance="10"
     gridtolerance="10"
     guidetolerance="10"
     inkscape:pageopacity="0"
     inkscape:pageshadow="2"
     inkscape:window-width="1920"
     inkscape:window-height="1017"
     id="namedview7"
     showgrid="false"
     inkscape:zoom="9.8333333"
     inkscape:cx="-8.9485961"
     inkscape:cy="24"
     inkscape:window-x="1912"
     inkscape:window-y="32"
     inkscape:window-maximized="1"
     inkscape:current-layer="svg18" />
  <metadata
     id="metadata24">
    <rdf:RDF>
      <cc:Work
         rdf:about="">
        <dc:format>image/svg+xml</dc:format>
        <dc:type
           rdf:resource="http://purl.org/dc/dcmitype/StillImage" />
        <dc:title />
      </cc:Work>
    </rdf:RDF>
  </metadata>
  <defs
     id="defs22" />
  <path
     id="path8"
     d="m 45.156242,35.756334 -13.194081,0.05675 -4.477159,-4.422261 a 13.500549,13.500549 0 0 1 -0.0083,0.01106 l -4.850101,-4.808565 -0.715132,-0.709007 -0.0028,1.1e-5 a 5.6744496,5.6744496 0 0 0 0.602671,-0.958501 5.6744496,5.6744496 0 0 0 0.0028,-0.0028 5.6744496,5.6744496 0 0 0 0.3972,-1.060137 5.6744496,5.6744496 0 0 0 0.149099,-0.779139 5.6744496,5.6744496 0 0 0 0.0054,-0.03328 l 7.838325,-0.03371 a 13.500549,13.500549 0 0 1 -0.0027,0.03327 l 2.851052,-0.0122 z M 30.909386,21.664597 23.062759,21.698348 A 5.6744496,5.6744496 0 0 0 21.87584,18.880055 l 5.52309,-5.570798 a 13.500549,13.500549 0 0 1 3.510456,8.355348 z m -0.759264,14.156268 -11.947267,0.05139 -1.1e-5,-0.0028 a 13.500549,13.500549 0 0 1 -0.03324,0.0029 l -0.03375,-7.846628 a 5.6744496,5.6744496 0 0 0 2.818293,-1.186918 l 0.07235,0.07173 0.01928,-0.02503 z M 26.438927,12.357467 20.921355,17.9227 a 5.6744496,5.6744496 0 0 0 -2.833904,-1.1543 l -0.03371,-7.838317 a 13.500549,13.500549 0 0 1 8.385183,3.427384 z M 16.817458,35.867121 A 13.500549,13.500549 0 0 1 8.4322732,32.439738 l 5.5175738,-5.565233 a 5.6744496,5.6744496 0 0 0 2.833902,1.1543 z m -0.08212,-19.095677 a 5.6744496,5.6744496 0 0 0 -2.818293,1.186918 L 8.3462455,12.435274 A 13.500549,13.500549 0 0 1 16.701594,8.924816 Z m -3.739976,9.145714 -5.5230902,5.570799 A 13.500549,13.500549 0 0 1 3.9618112,23.132608 l 7.8466278,-0.03375 a 5.6744496,5.6744496 0 0 0 1.18692,2.818294 z m -0.03565,-7.004309 a 5.6744496,5.6744496 0 0 0 -1.1543,2.833902 l -7.8383148,0.03371 a 13.500549,13.500549 0 0 1 3.4273816,-8.385185 z"
     style="opacity:1;stroke-width:1.41861236;fill:#cccccc" />
</svg>
