<?xml version="1.0" encoding="UTF-8" standalone="no"?>
<svg
   xmlns:dc="http://purl.org/dc/elements/1.1/"
   xmlns:cc="http://creativecommons.org/ns#"
   xmlns:rdf="http://www.w3.org/1999/02/22-rdf-syntax-ns#"
   xmlns:svg="http://www.w3.org/2000/svg"
   xmlns="http://www.w3.org/2000/svg"
   id="svg26"
   version="1"
   height="48"
   width="48">
  <metadata
     id="metadata32">
    <rdf:RDF>
      <cc:Work
         rdf:about="">
        <dc:format>image/svg+xml</dc:format>
        <dc:type
           rdf:resource="http://purl.org/dc/dcmitype/StillImage" />
        <dc:title></dc:title>
      </cc:Work>
    </rdf:RDF>
  </metadata>
  <defs
     id="defs30" />
  <path
     id="rect4"
     d="M 16 4 C 9.352 4 4 9.352 4 16 L 4 32 C 4 38.648 9.352 44 16 44 L 32 44 C 38.648 44 44 38.648 44 32 L 44 16 C 44 9.352 38.648 4 32 4 L 16 4 z M 24 8 A 16 16 0 0 1 40 24 A 16 16 0 0 1 24 40 A 16 16 0 0 1 8 24 A 16 16 0 0 1 24 8 z M 18.232422 11.246094 C 14.964233 12.719992 12.373009 15.402299 11.025391 18.738281 C 12.36991 19.910683 17.216747 24.142431 17.607422 24.486328 C 17.77002 24.629456 18.088921 24.910033 18.316406 25.109375 L 18.730469 25.472656 L 19.021484 25.455078 C 19.181733 25.446188 19.711425 25.41053 20.199219 25.375 C 20.687014 25.33946 21.301795 25.29694 21.564453 25.28125 C 21.827112 25.26556 22.091757 25.246881 22.154297 25.238281 C 22.216834 25.229691 22.483435 25.208699 22.746094 25.193359 C 23.008752 25.178019 23.48028 25.146417 23.792969 25.123047 C 24.105657 25.099677 24.698579 25.0584 25.111328 25.03125 C 26.164749 24.961968 26.052322 25.034863 26.013672 24.455078 C 25.932428 23.236517 25.840936 21.892736 25.681641 19.621094 C 25.645681 19.108284 25.602587 18.462666 25.585938 18.1875 L 25.554688 17.6875 L 25.34375 17.480469 C 25.228097 17.367054 24.991512 17.150421 24.816406 16.998047 C 24.6413 16.845673 24.150141 16.417018 23.724609 16.044922 C 23.299076 15.672826 22.869321 15.298081 22.769531 15.212891 C 22.669747 15.1277 22.444636 14.932224 22.269531 14.777344 C 22.094425 14.622463 21.356297 13.976922 20.630859 13.34375 C 19.905421 12.710578 18.851903 11.788155 18.289062 11.294922 C 18.261965 11.271176 18.259307 11.269642 18.232422 11.246094 z M 28.570312 25.005859 C 28.25144 24.988305 28.151756 25.004548 27.904297 25.117188 C 27.172626 25.450243 26.818485 26.272838 27.09375 26.998047 C 27.245902 27.398905 27.643045 27.800448 28.009766 27.921875 C 28.729643 28.160237 29.489831 27.844659 29.849609 27.160156 C 30.044607 26.789147 30.050143 26.233053 29.863281 25.855469 C 29.597524 25.318464 29.173177 25.039049 28.570312 25.005859 z "
     style="fill:#cccccc" />
</svg>
