<?xml version="1.0" encoding="UTF-8" standalone="no"?>
<svg
   xmlns:dc="http://purl.org/dc/elements/1.1/"
   xmlns:cc="http://creativecommons.org/ns#"
   xmlns:rdf="http://www.w3.org/1999/02/22-rdf-syntax-ns#"
   xmlns:svg="http://www.w3.org/2000/svg"
   xmlns="http://www.w3.org/2000/svg"
   id="svg32"
   version="1"
   height="48"
   width="48">
  <metadata
     id="metadata38">
    <rdf:RDF>
      <cc:Work
         rdf:about="">
        <dc:format>image/svg+xml</dc:format>
        <dc:type
           rdf:resource="http://purl.org/dc/dcmitype/StillImage" />
        <dc:title></dc:title>
      </cc:Work>
    </rdf:RDF>
  </metadata>
  <defs
     id="defs36" />
  <path
     id="rect4"
     d="M 24 4 C 12.92 4 4 12.92 4 24 C 4 35.08 12.92 44 24 44 C 35.08 44 44 35.08 44 24 C 44 12.92 35.08 4 24 4 z M 11 14.253906 L 24 21.759766 L 37 14.253906 L 37 19 L 37 19.349609 L 37 29.685547 L 33 32 L 33 26.068359 L 34 25.541016 L 34 21.082031 L 24.013672 26.847656 L 24 26.839844 L 23.986328 26.847656 L 14 21.082031 L 14 25.541016 L 15 26.068359 L 15 32 L 11 29.685547 L 11 19.349609 L 11 19 L 11 14.253906 z M 17 27 L 24 31.041016 L 31 27 L 31 31.599609 L 27.984375 33.341797 L 27.222656 33.78125 L 24 35.642578 L 20.017578 33.341797 L 17 31.599609 L 17 27 z "
     style="fill:#cccccc" />
</svg>
