<?xml version="1.0" encoding="UTF-8" standalone="no"?>
<svg
   xmlns:dc="http://purl.org/dc/elements/1.1/"
   xmlns:cc="http://creativecommons.org/ns#"
   xmlns:rdf="http://www.w3.org/1999/02/22-rdf-syntax-ns#"
   xmlns:svg="http://www.w3.org/2000/svg"
   xmlns="http://www.w3.org/2000/svg"
   id="svg12"
   version="1"
   height="48"
   width="48">
  <metadata
     id="metadata18">
    <rdf:RDF>
      <cc:Work
         rdf:about="">
        <dc:format>image/svg+xml</dc:format>
        <dc:type
           rdf:resource="http://purl.org/dc/dcmitype/StillImage" />
        <dc:title></dc:title>
      </cc:Work>
    </rdf:RDF>
  </metadata>
  <defs
     id="defs16" />
  <path
     id="path828"
     d="M 24.125 4.2070312 A 19.954794 19.954794 0 0 0 4.1699219 24.162109 A 19.954794 19.954794 0 0 0 24.125 44.117188 A 19.954794 19.954794 0 0 0 44.080078 24.162109 A 19.954794 19.954794 0 0 0 24.125 4.2070312 z M 22.162109 8.65625 C 22.570712 9.054275 22.910099 11.525511 23.162109 11.113281 C 23.181059 10.388767 22.223568 8.1177144 23.201172 9.6152344 C 23.49713 11.066724 23.583533 12.555814 23.744141 14.017578 C 24.175221 12.599259 24.049677 11.065767 23.816406 9.6914062 C 24.024227 10.781714 24.134641 10.077702 24.283203 9.5097656 C 24.286303 10.807138 24.55565 10.324889 24.810547 9.9921875 C 24.92999 10.657317 23.519122 12.980854 24.957031 11.748047 C 25.637266 11.227244 25.001683 9.5345367 25.451172 9.3085938 C 25.740234 10.631037 25.458479 11.756364 25.261719 13.109375 C 25.477827 13.967629 24.650088 15.740245 25.208984 15.480469 C 25.106689 16.821349 24.384184 18.030494 24.554688 19.414062 C 24.570367 21.45389 24.530096 23.50682 24.714844 25.537109 C 25.454889 24.021871 25.341017 22.166266 25.777344 20.523438 C 26.611473 16.870119 25.954069 13.112394 26.173828 9.4160156 C 26.432068 9.8915296 26.397479 12.107258 26.705078 10.341797 C 27.05456 11.444621 26.292812 13.315647 26.582031 14.712891 C 27.228617 13.882402 27.401519 12.578255 27.490234 11.492188 C 27.384599 10.885628 28.204625 9.240814 27.896484 10.765625 C 27.639274 12.272125 27.466684 13.818833 26.900391 15.244141 C 27.340012 14.961407 28.179106 12.754715 27.695312 14.53125 C 27.373124 15.376717 26.660846 16.767693 27.648438 15.767578 C 28.434459 14.679008 29.109583 13.297935 28.630859 11.9375 C 28.838124 9.996586 28.885915 14.038946 29.234375 12.21875 C 29.647977 11.046792 29.648321 12.91301 29.199219 13.248047 C 28.666517 14.570303 27.893809 15.814187 27.427734 17.152344 C 27.431534 17.844999 27.221554 19.462851 28.083984 18.132812 C 27.994824 19.617604 26.339623 20.457437 26.169922 21.859375 C 26.586019 21.273299 27.251978 20.219851 26.759766 21.587891 C 27.608563 20.740332 28.081669 19.422062 28.626953 18.310547 C 29.751467 16.224214 29.440453 13.728011 30.380859 11.59375 C 30.266102 12.275714 29.897327 14.02066 30.607422 12.498047 C 30.803682 13.302423 29.460833 15.241489 29.888672 16.101562 C 30.354468 15.510274 31.755936 13.968263 30.671875 15.453125 C 29.937013 16.65638 29.018928 17.737128 28.5625 19.091797 C 28.224452 20.213535 26.79676 21.822328 27.179688 22.667969 C 28.633326 21.731414 28.667137 19.750149 29.306641 18.275391 C 29.89781 17.376744 28.37312 21.248519 29.423828 19.189453 C 30.469896 17.231576 31.891225 15.240905 31.662109 12.90625 C 31.639959 11.976103 31.942113 13.347016 32.183594 12.275391 C 32.201054 12.986979 31.786968 14.804221 32.449219 13.261719 C 32.597086 12.390291 33.463321 11.840262 32.851562 13.041016 C 32.443019 13.555446 32.31777 14.574281 32.988281 13.523438 C 34.098446 11.900683 32.992201 14.072919 32.498047 14.589844 C 31.603499 15.552351 31.076667 16.856047 30.314453 17.964844 C 29.69657 19.170924 28.861673 20.694777 28.572266 21.789062 C 29.765442 20.91666 30.331316 19.451779 31.318359 18.373047 C 31.978538 17.651952 32.113558 16.427991 32.720703 16.445312 C 33.326616 15.880066 33.882256 13.889003 34.154297 15.214844 C 33.221075 16.041759 32.169747 17.213907 31.841797 18.292969 C 32.882982 17.961938 33.469532 16.526694 33.982422 16.867188 C 34.70083 15.963916 35.540174 15.974738 36.339844 15.310547 C 35.819564 16.655097 34.453294 17.283842 33.947266 18.716797 C 33.427588 19.594614 34.862628 18.63586 33.976562 19.537109 C 33.655777 20.196863 33.314376 21.120296 34.294922 20.203125 C 34.964716 19.418485 36.531557 19.672908 37.025391 18.591797 C 37.186782 17.859709 37.95572 16.62145 37.472656 18.117188 C 37.214585 18.928877 37.703418 18.882968 36.998047 19.646484 C 35.882299 21.467457 39.076535 17.736718 37.708984 19.623047 C 36.550917 20.832923 38.888114 19.019861 38.402344 19.992188 C 36.982867 20.302287 36.277779 21.702769 35.15625 22.550781 C 33.725627 23.711422 36.242201 22.946876 36.507812 22.910156 C 37.295468 23.037307 38.787443 21.96956 38.714844 22.707031 C 38.239227 22.94984 35.71488 23.182474 37.515625 23.324219 C 38.462246 23.332919 37.922356 24.140522 37.195312 23.564453 C 35.873422 23.138036 34.639168 23.764351 33.373047 23.916016 C 32.48213 24.237608 31.787001 25.687707 33.378906 25.339844 C 34.276964 25.562757 35.764128 25.446422 36.273438 25.0625 C 35.207619 25.943088 37.879957 25.253647 38.367188 25.494141 C 39.874119 25.716516 37.587717 25.622716 37.0625 25.708984 C 36.470251 26.319409 33.786329 26.984317 35.785156 26.080078 C 37.118019 25.549079 34.511728 25.822661 34.058594 25.691406 C 33.342938 25.166663 31.065156 25.998007 32.339844 26.669922 C 32.904372 27.124725 34.698912 26.781965 34.683594 26.822266 C 34.652654 28.002937 36.893294 26.289401 37.1875 26.628906 C 36.197606 26.975099 36.261176 27.465042 37.318359 27.425781 C 38.472671 27.10281 38.675669 28.503862 37.521484 27.748047 C 35.842398 27.519214 34.125197 27.503754 32.460938 27.113281 C 31.361535 26.883467 29.492459 29.51342 31.675781 29.113281 C 32.726958 29.425643 34.420596 28.972048 35.113281 29.300781 C 34.351249 29.271991 32.629291 29.482337 34.378906 29.748047 C 34.852175 29.921626 36.704161 29.964895 35.283203 30.244141 C 35.620282 30.778666 38.159961 31.394534 36.423828 31.111328 C 35.193003 30.466144 34.189048 30.272994 33.082031 29.759766 C 32.143423 29.456717 29.850007 29.013997 29.648438 30.138672 C 30.26417 31.609814 31.479407 32.607062 33.128906 31.988281 C 33.928041 31.921371 33.170837 32.183992 33.494141 32.726562 C 32.806067 32.126306 30.73848 32.418447 32.320312 33.253906 C 32.978577 33.449552 34.415983 34.831016 33.046875 33.847656 C 31.89458 32.988704 32.412487 34.070302 32.703125 34.703125 C 31.82615 34.193594 31.207468 32.496468 30.402344 32.224609 C 30.185235 33.15148 31.648359 34.721638 31.394531 34.882812 C 29.838932 34.05937 30.237646 32.409366 29.724609 31.011719 C 28.945488 29.57295 26.383334 32.219025 27.853516 32.943359 C 28.054237 33.540734 30.483339 35.058463 28.804688 34.265625 C 28.136633 33.613253 27.383241 33.69594 28.058594 34.693359 C 28.444186 35.274068 28.804353 36.585554 28.089844 35.277344 C 27.664642 34.549548 26.96138 31.674332 26.248047 33.708984 C 25.718091 35.451161 25.003003 37.576218 26.103516 39.242188 C 25.20556 39.971697 23.465415 39.553241 22.291016 39.503906 C 21.090277 39.190284 22.819568 37.554056 22.396484 36.607422 C 22.255884 35.284254 23.030258 33.106644 21.410156 32.517578 C 20.005445 32.678678 19.482681 34.176593 18.609375 35.146484 C 17.989723 35.859093 19.352496 33.812097 18.222656 34.496094 C 17.28906 34.829876 16.906683 34.632671 18.056641 34.355469 C 18.916899 34.365679 19.432686 33.429935 18.630859 33.302734 C 19.411454 32.577969 22.408164 32.346241 20.873047 30.871094 C 20.499225 30.071417 19.38501 28.962966 18.888672 30.181641 C 17.951373 30.290056 17.802331 32.883219 17.240234 31.990234 C 16.685291 33.063141 16.566257 34.35023 15.333984 34.902344 C 15.462306 34.738855 16.857729 33.003343 16.382812 32.521484 C 15.737317 33.269618 15.297714 32.691346 14.615234 33.138672 C 15.490964 32.449525 17.35604 32.140897 17.253906 30.857422 C 16.344429 30.481143 15.241855 32.733385 14.929688 31.966797 C 15.012367 31.176694 12.729498 33.764098 13.507812 32.484375 C 12.028567 32.575935 14.94729 31.68974 14.798828 31.228516 C 15.753344 30.479351 17.788671 30.94291 18.15625 29.724609 C 16.81734 29.01338 15.16914 29.115563 14.046875 30.175781 C 13.699522 30.38982 12.547154 31.167089 13.328125 30.339844 C 11.094864 30.486921 15.811921 29.601496 13.505859 29.474609 C 13.431339 29.533429 16.078594 28.951943 14.517578 28.46875 C 13.342176 27.715025 11.200222 28.2282 10.451172 27.767578 C 11.114799 27.53337 13.138345 27.942079 11.628906 27.125 C 10.522858 26.437384 12.736664 27.492091 13.070312 27.591797 C 13.646556 27.921142 14.810126 28.094419 13.818359 27.292969 C 13.103054 26.291266 15.001247 28.4762 15.595703 28.474609 C 16.478708 28.408609 18.403887 28.539853 18.744141 27.916016 C 17.65972 26.761558 16.057312 26.281044 14.6875 25.548828 C 13.172849 25.477898 11.622991 25.825663 10.085938 26.017578 C 9.9274183 25.482224 12.150075 25.558536 12.847656 25.367188 C 13.298899 24.683011 10.846466 24.346552 10.072266 24.265625 C 9.4062664 24.429989 9.3774466 23.690069 9.3847656 23.714844 C 10.200178 23.942308 13.021506 24.788793 11.197266 23.378906 C 11.404242 22.343421 8.0088237 21.171173 10.294922 21.871094 C 9.9721187 21.414162 9.3792809 20.318659 10.314453 21.273438 C 11.203363 22.409533 11.938004 23.837642 13.224609 24.558594 C 13.716804 24.934895 15.504615 25.298077 14.240234 24.425781 C 13.198599 23.910722 13.231785 23.252677 12.402344 22.462891 C 13.756356 22.905078 14.285255 24.43068 15.412109 25.220703 C 16.523905 25.503587 17.514684 26.681504 18.505859 26.791016 C 18.072864 25.277394 16.310441 25.068417 15.283203 24.083984 C 14.597489 23.729657 14.13052 23.476654 15.158203 23.699219 C 16.1008 24.019201 16.651717 24.857749 17.78125 25.197266 C 16.763184 24.11574 15.572491 22.819103 14.134766 22.388672 C 13.154331 22.323642 10.999156 21.422887 10.910156 21.103516 C 11.782117 21.360914 14.057119 22.671636 14.259766 21.705078 C 13.897652 20.872571 12.141549 20.568199 12.128906 20.134766 C 12.773289 20.551402 13.722937 20.52373 12.634766 19.84375 C 12.039843 19.504809 10.594374 18.29204 12.037109 19.128906 C 13.498642 20.072137 10.474442 16.970844 11.951172 18.371094 C 12.580006 18.908196 13.74456 20.696684 13.990234 20.4375 C 13.67427 19.780947 13.151438 18.132356 13.873047 19.650391 C 14.474146 21.254581 15.423214 22.767467 16.914062 23.677734 C 16.878322 22.614368 15.746727 21.372951 15.007812 20.414062 C 14.47336 19.792112 13.938842 18.60687 14.892578 19.832031 C 15.117669 20.609673 16.226629 21.324357 15.482422 20.113281 C 15.034475 19.034435 13.296392 18.121014 13.166016 17.328125 C 14.000128 18.259129 13.404132 16.864281 13.691406 17.175781 C 13.758766 17.982239 15.157501 19.276726 14.943359 18.449219 C 15.249742 18.996445 15.914317 19.676673 15.404297 18.554688 C 14.995467 17.761215 14.977353 17.093115 15.484375 18.244141 C 15.709112 20.023831 17.474245 20.868164 18.554688 22.113281 C 19.001691 22.666663 20.1112 23.365699 19.279297 22.220703 C 18.865417 21.089054 16.922286 19.934963 16.740234 19.375 C 17.214642 19.896913 18.656012 20.69692 17.578125 19.460938 C 16.433564 18.26453 15.329529 16.983671 13.855469 16.1875 C 13.132923 15.791955 12.776299 15.072634 13.763672 15.894531 C 15.125887 16.835146 11.837765 13.623792 13.222656 14.662109 C 14.463894 15.748792 15.391179 17.167311 16.765625 18.111328 C 17.95905 18.740886 16.473671 16.585923 16.056641 16.259766 C 15.483117 15.424703 13.626216 14.348895 13.896484 13.740234 C 14.667989 14.186931 12.650667 11.819829 13.8125 12.8125 C 14.381134 13.529942 14.299002 13.072501 14.042969 12.509766 C 14.911963 13.42771 15.435675 15.200683 16.400391 15.691406 C 16.154221 14.989516 16.117183 14.121447 15.644531 13.535156 C 15.171498 13.111235 14.129173 11.923776 15.349609 12.875 C 16.40127 13.699837 16.519433 15.221821 17.023438 16.40625 C 17.372042 17.345434 17.872594 19.249871 18.345703 19.580078 C 18.589287 18.441563 17.828223 17.384589 17.974609 16.277344 C 18.219512 17.287793 18.869173 18.079145 19.591797 18.800781 C 20.020072 19.508308 20.93694 20.001708 20.105469 18.888672 C 18.760091 16.841253 17.15886 14.912055 16.400391 12.542969 C 15.994653 12.05947 14.706855 11.489167 16.097656 11.958984 C 15.902795 10.237654 17.429573 14.498727 16.908203 12.271484 C 16.667957 11.590407 16.60005 10.849954 16.908203 11.912109 C 17.409545 13.65538 17.952525 15.524426 19.193359 16.894531 C 19.140569 15.640603 18.094954 14.865266 18.277344 14.009766 C 18.008064 13.138469 17.424171 12.093454 17.296875 11.359375 C 17.803936 12.209615 17.703 11.517958 17.458984 11.027344 C 18.333635 10.893583 18.422726 12.990913 18.980469 13.046875 C 18.940719 12.499423 17.91465 10.748008 18.361328 10.802734 C 19.14304 12.212751 19.380309 13.959905 20.552734 15.134766 C 20.97687 15.74829 21.873439 16.968973 21.287109 15.535156 C 20.670302 13.924019 19.95992 12.306359 18.699219 11.087891 C 17.817358 9.7340916 20.242495 12.667455 19.361328 10.900391 C 18.572428 9.8932426 19.687174 10.241633 19.65625 11.15625 C 19.791752 11.874452 20.366255 12.477269 20.0625 11.279297 C 20.1335 11.103705 20.864897 14.691712 20.773438 12.640625 C 20.942636 11.191746 19.646782 10.3663 19.505859 9.0488281 C 19.974218 10.499414 20.195744 7.5734663 20.222656 9.1914062 C 20.246876 9.8575653 20.431826 10.651887 20.748047 10.302734 C 20.97133 11.747013 20.896702 13.25435 21.462891 14.628906 C 21.431441 13.896165 21.060506 11.713658 21.744141 13.302734 C 22.253907 15.032296 22.067854 11.803081 21.583984 11.277344 C 21.757544 10.293554 20.297659 9.2918161 20.738281 8.8457031 C 21.408473 9.2359371 21.575452 10.544896 21.849609 10.791016 C 22.056629 10.129814 21.361747 7.8304246 22.003906 9.5566406 C 22.628233 11.172049 22.291701 9.346582 22.162109 8.65625 z M 18.683594 9.8925781 C 18.736371 9.9109513 19.16468 10.51687 18.798828 10.128906 C 18.689404 9.9460343 18.666001 9.8864537 18.683594 9.8925781 z M 22.267578 10.794922 C 22.225787 10.786089 22.184028 10.78606 22.140625 10.796875 C 22.200835 12.139322 22.628264 13.332802 23.119141 14.65625 C 23.180141 14.448457 23.169774 14.23094 23.183594 14.017578 C 23.327554 13.154822 22.894441 10.927417 22.267578 10.794922 z M 33.373047 12.121094 C 33.443679 12.0888 33.473999 12.371429 33.294922 12.283203 C 33.321004 12.176784 33.349503 12.131858 33.373047 12.121094 z M 24.931641 12.152344 C 24.811707 12.15186 24.51961 13.471598 24.882812 13.056641 L 24.921875 12.902344 L 24.962891 12.707031 C 24.99177 12.300196 24.971618 12.152505 24.931641 12.152344 z M 15.683594 12.501953 C 15.726395 12.442149 16.099518 13.286019 15.789062 12.941406 C 15.692678 12.643636 15.669327 12.521888 15.683594 12.501953 z M 18.228516 12.808594 C 18.223016 14.251512 19.35361 14.425779 19.84375 15.646484 C 19.980494 15.823344 20.333648 16.1496 20.556641 16.041016 C 19.75364 14.983538 19.051219 13.848939 18.228516 12.808594 z M 24.251953 13.070312 C 24.244753 14.357961 23.687714 16.047257 24.199219 17.095703 C 24.269579 16.892711 24.305758 16.67895 24.345703 16.46875 C 24.430583 15.471581 24.622952 13.511491 24.251953 13.070312 z M 22.263672 14.117188 C 22.178813 14.093364 22.108722 14.241633 22.074219 14.691406 C 21.926477 15.58448 21.843021 16.514864 22.291016 17.333984 C 22.526803 17.958039 23.086856 19.815071 23.080078 18.080078 C 23.898428 18.167948 23.530194 21.246199 24.103516 21.359375 C 24.336594 19.160285 23.799684 16.962502 22.726562 15.042969 C 22.58878 14.671429 22.405103 14.156893 22.263672 14.117188 z M 32.847656 15.027344 C 32.925736 14.983857 32.928284 15.182803 32.685547 15.701172 C 32.793173 15.620432 32.530974 15.95903 32.554688 15.808594 C 32.614449 15.356343 32.769576 15.070831 32.847656 15.027344 z M 19.771484 16.292969 C 19.44775 16.286139 19.352802 16.555994 19.845703 17.292969 C 20.874977 19.143512 21.903718 20.994405 22.847656 22.890625 C 23.066649 23.019055 23.030445 22.307307 23.111328 22.201172 C 23.529082 20.575133 22.197897 19.202554 21.642578 17.775391 C 21.487341 17.087878 20.311042 16.304351 19.771484 16.292969 z M 34.675781 16.652344 C 34.277743 16.720346 33.213562 18.091624 34.410156 17.054688 L 34.580078 16.916016 L 34.796875 16.714844 C 34.775699 16.660571 34.732644 16.642629 34.675781 16.652344 z M 35.400391 18.113281 C 35.454478 18.123483 35.526827 18.18102 35.632812 18.292969 C 36.142817 18.14881 34.27738 20.4354 34.998047 18.992188 C 35.241081 18.465649 35.23813 18.082675 35.400391 18.113281 z M 32.423828 18.330078 C 32.33661 18.29308 32.133542 18.404416 31.755859 18.75 C 30.460108 19.569885 30.005909 21.21093 28.916016 22.244141 C 28.802824 22.404312 27.54712 24.170334 28.460938 23.689453 C 29.700117 22.778149 30.938868 21.765381 31.578125 20.326172 C 31.894758 19.885269 32.685481 18.441071 32.423828 18.330078 z M 18.638672 18.621094 C 18.290982 20.29112 19.384368 21.937635 21.210938 21.638672 L 21.367188 21.636719 L 21.410156 21.601562 C 20.623962 20.587411 19.613487 19.14044 18.638672 18.621094 z M 32.949219 18.693359 C 32.891019 18.738838 32.785643 18.885631 32.617188 19.183594 C 32.310725 19.614158 31.709163 21.072477 32.431641 19.876953 L 32.548828 19.689453 C 32.865086 19.333886 33.123818 18.556923 32.949219 18.693359 z M 11.28125 19.603516 C 11.340454 19.564973 11.835084 19.837774 11.417969 19.769531 C 11.29149 19.663099 11.261515 19.616363 11.28125 19.603516 z M 36.308594 19.625 C 34.932667 20.082683 33.395848 20.692041 32.900391 22.185547 C 32.504476 22.892136 32.429508 24.39404 33.355469 23.175781 L 33.507812 23.007812 C 33.878434 22.455222 34.241629 22.382824 33.845703 23.148438 C 35.031434 22.571293 36.664583 20.678705 36.308594 19.625 z M 16.179688 20.769531 C 16.794235 22.391265 17.45895 24.096935 18.658203 25.380859 C 19.675754 25.617265 17.914458 24.032573 17.746094 23.451172 C 17.313846 22.29051 18.878515 24.44073 19.09375 24.833984 C 20.100574 26.241971 21.481808 27.338293 22.492188 28.75 C 22.736192 29.143199 22.798404 28.505435 22.738281 28.427734 C 22.440348 26.205396 20.898315 24.356522 19.089844 23.126953 C 18.09224 22.442713 17.213268 21.118341 16.179688 20.769531 z M 20.130859 21.986328 C 19.593023 22.089703 21.056694 23.584481 21.228516 24.035156 C 21.720009 24.600305 22.491674 26.108566 22.876953 26.039062 L 22.863281 25.845703 L 22.841797 25.617188 C 22.882867 24.070811 22.241311 22.291938 20.494141 22.035156 C 20.325976 21.986075 20.207693 21.97156 20.130859 21.986328 z M 32.146484 22.236328 C 31.430636 22.945758 30.528554 24.11491 30.457031 24.984375 C 30.814017 25.045295 31.298962 25.354556 31.636719 25.097656 C 31.784536 24.350372 32.86856 22.438351 32.146484 22.236328 z M 30.628906 22.386719 C 29.840728 22.914392 28.850461 24.071636 28.759766 24.757812 C 28.965339 24.726472 29.173557 24.724926 29.380859 24.722656 C 30.396021 24.927846 31.302711 22.640392 30.628906 22.386719 z M 9.3007812 22.40625 C 9.3868145 22.426015 9.5702535 22.702586 9.2695312 22.5 C 9.2554112 22.42259 9.2721035 22.399662 9.3007812 22.40625 z M 9.8925781 22.861328 C 10.035684 22.831665 10.732752 23.024214 10.976562 23.291016 C 10.79525 23.313596 10.618872 23.234874 10.449219 23.1875 C 9.9203933 22.977545 9.8067145 22.879126 9.8925781 22.861328 z M 27.550781 23.076172 C 26.646646 23.893341 25.925264 25.092609 25.900391 26.304688 L 26.113281 26.128906 C 26.784527 25.290847 27.818001 24.153188 27.550781 23.076172 z M 12.480469 23.255859 C 12.614024 23.29993 13.155996 23.801519 12.541016 23.414062 C 12.436791 23.277156 12.43595 23.241169 12.480469 23.255859 z M 37.771484 25.064453 C 38.255804 25.054338 38.656263 25.439268 37.671875 25.283203 L 37.494141 25.273438 L 37.306641 25.240234 C 37.439061 25.114459 37.610044 25.067825 37.771484 25.064453 z M 9.5703125 25.091797 C 9.7239947 25.062296 10.745458 25.409137 9.8105469 25.279297 C 9.5643646 25.154717 9.5190851 25.101631 9.5703125 25.091797 z M 31 25.46875 C 30.349953 25.40513 29.33192 25.929666 28.947266 26.316406 C 28.834542 26.637369 26.646385 28.640315 28.021484 28.041016 C 29.038237 27.08172 30.908111 26.948412 31.490234 25.755859 C 31.392621 25.576971 31.216682 25.489957 31 25.46875 z M 38.685547 26.316406 C 38.947969 26.316028 39.011279 26.388481 38.402344 26.597656 C 38.282829 26.834682 38.04909 26.590969 37.884766 26.636719 C 37.254934 26.520856 38.248177 26.317036 38.685547 26.316406 z M 19.324219 26.441406 C 18.789046 27.017289 20.12142 28.570058 20.685547 29.115234 C 20.99866 29.147234 21.318053 29.166724 21.630859 29.121094 C 21.886073 28.133189 20.245688 26.923461 19.324219 26.441406 z M 27.095703 26.673828 C 26.459513 26.923571 25.418146 28.658132 25.251953 29.738281 C 25.131612 30.06279 25.487493 29.920162 25.589844 29.800781 C 26.842451 29.253466 27.218965 27.934028 27.095703 26.673828 z M 9.9726562 27.056641 C 10.076636 27.064136 10.236619 27.387745 9.9082031 27.185547 C 9.9106031 27.08654 9.9379963 27.054142 9.9726562 27.056641 z M 38.875 27.458984 C 38.985694 27.443084 39.094768 27.768668 38.779297 27.619141 C 38.800824 27.507802 38.838102 27.464285 38.875 27.458984 z M 30.126953 27.59375 C 28.789852 27.821038 27.57396 28.8357 27.386719 30.207031 C 27.506033 30.349597 27.660969 29.956152 27.759766 30.029297 C 28.471843 29.370031 30.271342 28.185986 30.126953 27.59375 z M 18.564453 28.652344 C 18.361712 28.634505 18.175108 28.653304 18.068359 28.730469 C 16.174583 28.782709 18.784595 29.456921 19.175781 29.267578 C 19.933468 29.094076 19.172677 28.70586 18.564453 28.652344 z M 21.525391 29.654297 C 21.173171 29.586632 20.91577 29.792689 21.482422 30.363281 C 21.66884 30.584192 22.336968 31.498865 22.134766 30.589844 C 22.323218 30.062326 21.877611 29.721962 21.525391 29.654297 z M 37.111328 30.201172 C 37.391971 30.22865 39.505524 30.866022 37.982422 30.53125 L 37.816406 30.484375 L 37.644531 30.435547 C 37.128348 30.250468 37.017781 30.192012 37.111328 30.201172 z M 25.964844 30.648438 C 25.889034 30.702075 25.913262 31.226843 26.072266 30.804688 C 26.025916 30.665516 25.990114 30.630558 25.964844 30.648438 z M 34.326172 30.683594 C 34.349858 30.592419 34.957668 30.904932 34.556641 30.935547 C 34.375957 30.790466 34.318276 30.713985 34.326172 30.683594 z M 25.308594 31.601562 C 25.120877 31.618045 24.960107 31.818052 25.048828 32.310547 C 25.041228 32.657008 25.081591 33.292627 25.447266 32.560547 C 26.010233 32.058199 25.621455 31.574092 25.308594 31.601562 z M 30.300781 33.964844 C 30.371428 33.990562 30.291756 34.300649 30.175781 34.064453 C 30.236944 33.978954 30.277232 33.956271 30.300781 33.964844 z M 16.175781 34.652344 C 16.295006 34.60375 16.12886 35.054247 15.951172 34.908203 C 16.064411 34.740678 16.13604 34.668542 16.175781 34.652344 z "
     style="fill:#cccccc;fill-opacity:1;stroke:none;stroke-width:2.10626197;stroke-miterlimit:4;stroke-dasharray:none;stroke-opacity:1" />
  <path
     id="path4"
     d="M 6,4 C 4.892,4 4,4.892 4,6 V 7 C 4,5.892 4.892,5 6,5 h 36 c 1.108,0 2,0.892 2,2 V 6 C 44,4.892 43.108,4 42,4 Z"
     style="opacity:0.1;fill:#ffffff" />
</svg>
