<?xml version="1.0" encoding="UTF-8" standalone="no"?>
<svg
   xmlns:dc="http://purl.org/dc/elements/1.1/"
   xmlns:cc="http://creativecommons.org/ns#"
   xmlns:rdf="http://www.w3.org/1999/02/22-rdf-syntax-ns#"
   xmlns:svg="http://www.w3.org/2000/svg"
   xmlns="http://www.w3.org/2000/svg"
   id="svg14"
   version="1.1"
   height="48"
   width="48">
  <metadata
     id="metadata20">
    <rdf:RDF>
      <cc:Work
         rdf:about="">
        <dc:format>image/svg+xml</dc:format>
        <dc:type
           rdf:resource="http://purl.org/dc/dcmitype/StillImage" />
        <dc:title></dc:title>
      </cc:Work>
    </rdf:RDF>
  </metadata>
  <defs
     id="defs18" />
  <path
     id="path2"
     d="M 24 4 A 20 20 0 0 0 4 24 A 20 20 0 0 0 24 44 A 20 20 0 0 0 44 24 A 20 20 0 0 0 24 4 z M 17.714844 14.990234 C 18.566692 14.991735 19.378133 15.086379 19.966797 15.810547 C 22.42663 20.159453 24.960319 24.463998 27.369141 28.851562 C 27.763902 29.892513 28.871271 30.836805 28.474609 32.064453 C 27.535472 33.891036 26.620983 35.718001 25.509766 37.460938 C 25.070088 38.150579 24.243625 39.76344 23.458984 38.576172 C 19.375302 31.424409 14.994573 23.835732 11.287109 17.060547 C 10.951789 16.447762 10.685202 14.9906 11.84375 15 C 13.514949 15.02183 15.184462 14.96415 16.855469 15 C 17.141363 15 17.430894 14.989734 17.714844 14.990234 z M 29.720703 15 L 36.054688 15 C 36.054688 15 37.507972 14.999543 36.810547 16.371094 C 36.113122 17.742643 35.24893 19.807945 34.253906 21.789062 C 33.977349 22.339689 33.381598 24.053204 32.277344 22.064453 C 31.173091 20.075707 29.255859 16.439453 29.255859 16.439453 C 29.255859 16.439453 28.442095 15 29.720703 15 z "
     style="fill:#cccccc" />
</svg>
