<?xml version="1.0" encoding="UTF-8" standalone="no"?>
<svg
   xmlns:dc="http://purl.org/dc/elements/1.1/"
   xmlns:cc="http://creativecommons.org/ns#"
   xmlns:rdf="http://www.w3.org/1999/02/22-rdf-syntax-ns#"
   xmlns:svg="http://www.w3.org/2000/svg"
   xmlns="http://www.w3.org/2000/svg"
   id="svg12"
   version="1"
   height="48"
   width="48">
  <metadata
     id="metadata18">
    <rdf:RDF>
      <cc:Work
         rdf:about="">
        <dc:format>image/svg+xml</dc:format>
        <dc:type
           rdf:resource="http://purl.org/dc/dcmitype/StillImage" />
        <dc:title></dc:title>
      </cc:Work>
    </rdf:RDF>
  </metadata>
  <defs
     id="defs16" />
  <path
     id="path2"
     d="M 24.107422 4.0019531 C 23.269615 3.9817641 22.442806 4.1904321 21.716797 4.6074219 L 8.2832031 12.333984 C 6.8703751 13.146409 5.9998971 14.648443 6 16.273438 L 6 31.726562 C 5.9999993 33.351372 6.8705763 34.851659 8.2832031 35.664062 L 22.097656 39.884766 C 22.689963 40.225403 23.340761 40.415721 24 40.470703 A 3.4610698 3.4475944 0 0 1 23.53125 40.25 L 13.347656 34.392578 A 3.4610698 3.4475944 0 0 1 12.320312 33.482422 L 38.611328 18.302734 A 3.4610698 3.4475944 0 0 1 38.908203 19.693359 L 38.908203 26.746094 L 42 16.273438 C 42.000103 14.648443 41.129625 13.146409 39.716797 12.333984 L 26.283203 4.6074219 C 25.620645 4.2269217 24.872004 4.0195358 24.107422 4.0019531 z "
     style="fill:#cccccc" />
  <path
     id="path6"
     d="M 41.609375 14.439453 L 6.9277344 34.462891 A 4.5656761 4.5479 0 0 0 8.2832031 35.664062 L 21.716797 43.390625 A 4.5656761 4.5479 0 0 0 26.283203 43.390625 L 39.716797 35.664062 A 4.5656761 4.5479 0 0 0 42 31.726562 L 42 16.273438 A 4.5656761 4.5479 0 0 0 41.609375 14.439453 z M 38.611328 18.302734 A 3.4610698 3.4475944 0 0 1 38.908203 19.693359 L 38.908203 31.408203 A 3.4610698 3.4475944 0 0 1 37.177734 34.392578 L 26.994141 40.25 A 3.4610698 3.4475944 0 0 1 23.53125 40.25 L 13.347656 34.392578 A 3.4610698 3.4475944 0 0 1 12.320312 33.482422 L 38.611328 18.302734 z "
     style="fill:#cccccc" />
</svg>
