<?xml version="1.0" encoding="UTF-8" standalone="no"?>
<svg
   xmlns:dc="http://purl.org/dc/elements/1.1/"
   xmlns:cc="http://creativecommons.org/ns#"
   xmlns:rdf="http://www.w3.org/1999/02/22-rdf-syntax-ns#"
   xmlns:svg="http://www.w3.org/2000/svg"
   xmlns="http://www.w3.org/2000/svg"
   height="496"
   width="496"
   id="svg4"
   version="1.1"
   viewBox="0 0 496 496">
  <metadata
     id="metadata10">
    <rdf:RDF>
      <cc:Work
         rdf:about="">
        <dc:format>image/svg+xml</dc:format>
        <dc:type
           rdf:resource="http://purl.org/dc/dcmitype/StillImage" />
        <dc:title></dc:title>
      </cc:Work>
    </rdf:RDF>
  </metadata>
  <defs
     id="defs8" />
  <path
     style="fill:#cccccc;stroke-width:1.02667761"
     id="path2"
     d="M 250.52789,18.16951 C 123.52788,17.861506 20.346788,120.52925 19.936117,247.52926 l -0.410671,174.84318 a 55.029915,55.029915 0 0 0 55.029916,55.33792 l 174.740518,0.41068 C 376.29589,478.42904 479.57965,375.76129 479.88766,248.76128 480.19565,121.76127 377.5279,18.477514 250.52789,18.16951 Z m 174.32984,161.3937 -63.44866,-64.27 c 2.36135,-4.8254 3.90137,-9.44544 3.90137,-14.6815 v -1.64268 l 56.6726,57.59661 a 103.69443,103.69443 0 0 1 2.87469,22.99757 z M 359.35572,82.131518 a 108.88942,108.88942 0 0 1 60.06062,65.502032 L 363.66776,91.576953 a 27.186421,27.186421 0 0 0 -4.31204,-9.445435 z M 140.77607,239.11051 a 50.984806,50.984806 0 0 0 -7.90542,11.70413 l -8.72676,-8.72677 a 88.068397,88.068397 0 0 1 16.63218,-2.97736 z m -21.6629,4.31204 12.11479,12.21747 -0.924,8.21342 a 35.666777,35.666777 0 0 0 2.46403,12.83347 l -27.72031,-27.92563 a 82.750208,82.750208 0 0 1 14.06549,-5.33873 z m -18.68553,7.59742 39.21908,39.42441 a 54.588444,54.588444 0 0 0 -14.47615,4.82539 L 88.928847,258.41205 a 109.85449,109.85449 0 0 1 11.498793,-7.39208 z m -15.605503,10.06144 36.241723,36.44705 a 69.044064,69.044064 0 0 0 -10.78012,8.72676 L 74.452693,270.73218 a 66.046165,66.046165 0 0 1 10.369444,-9.65077 z m -13.654812,12.62813 35.831045,35.93371 a 58.35635,58.35635 0 0 0 -7.905416,11.70413 L 62.337899,284.48965 c 2.874697,-3.90136 5.852062,-7.39207 8.829426,-10.78011 z m -11.293452,14.68149 37.371061,37.5764 a 49.578257,49.578257 0 0 0 -3.696039,15.6055 L 52.995133,300.71116 a 102.47268,102.47268 0 0 1 6.87874,-12.32013 z M 50.83911,305.12588 93.240892,348.041 a 65.163222,65.163222 0 0 0 6.878738,26.89895 L 46.013726,320.0127 c 1.437349,-5.03073 2.977365,-9.85611 4.825384,-14.88682 z m -8.110752,44.14713 63.551342,63.85934 a 32.073406,32.073406 0 0 0 -3.69604,14.68149 v 1.12934 L 45.705723,371.75725 a 90.624824,90.624824 0 0 1 -2.977365,-22.48424 z m 5.441392,31.519 55.74859,56.05659 a 29.198709,29.198709 0 0 0 4.31205,9.44543 109.15635,109.15635 0 0 1 -60.06064,-65.50202 z m -5.441392,-37.98707 a 82.842609,82.842609 0 0 1 2.156024,-17.45352 l 74.126118,74.43413 a 38.592808,38.592808 0 0 0 -10.16411,8.93208 z m 260.057422,-53.18189 -43.73647,-0.10271 -0.10271,57.49393 c -0.20533,71.14875 -66.11803,118.88926 -129.05336,105.64512 -5.85206,0 -20.43088,-8.9321 -20.43088,-24.84559 a 25.554003,25.554003 0 0 1 25.1536,-25.25627 c 6.46807,0 6.46807,1.64268 16.11884,1.64268 a 57.40154,57.40154 0 0 0 57.5966,-57.39127 l 0.10271,-48.25384 c 0,-4.62005 -4.62005,-9.24011 -9.13744,-9.24011 l -34.49636,-0.1027 c -33.46969,-0.10271 -33.36701,-50.71787 0.1027,-50.61521 l 43.73646,0.10271 0.10271,-57.49394 a 107.98594,107.98594 0 0 1 108.41715,-107.801133 88.653604,88.653604 0 0 1 20.73889,2.361359 c 11.49878,1.848019 20.43088,12.217462 20.43088,24.640264 0,15.91349 -15.2975,28.54162 -31.10833,24.53759 -28.13096,-6.0574 -67.65805,14.78416 -67.76072,56.36459 l -0.10271,48.25384 a 9.178497,9.178497 0 0 0 9.13743,9.24011 l 34.49637,0.10271 c 33.36702,0.20533 33.26435,50.82053 -0.20534,50.71787 z m 24.12692,-0.30801 a 36.529186,36.529186 0 0 0 7.80275,-11.70412 l 8.72676,8.72675 a 104.72111,104.72111 0 0 1 -16.52951,2.97737 z m 21.56023,-4.31205 -12.1148,-12.21745 0.92402,-8.31609 a 35.666777,35.666777 0 0 0 -2.46403,-12.83348 l 27.72029,27.92563 a 76.887879,76.887879 0 0 1 -14.06548,5.44139 z m 18.48019,-7.59741 -39.01374,-39.42442 c 5.03071,-1.12934 9.85611,-2.46402 14.06549,-4.82538 l 37.16572,36.85772 c -3.90138,2.56669 -8.11076,5.1334 -12.21747,7.39208 z m 15.91351,-10.06144 -36.24172,-36.44705 a 62.688929,62.688929 0 0 0 10.78011,-8.72676 l 35.83104,35.93371 a 127.88295,127.88295 0 0 1 -10.36943,9.2401 z M 396.41877,254.716 360.58773,218.78229 a 64.865485,64.865485 0 0 0 7.90541,-11.70412 l 36.75506,36.85772 a 133.75555,133.75555 0 0 1 -8.82943,10.78011 z m 11.29346,-14.68148 -37.37107,-37.57639 a 49.578257,49.578257 0 0 0 3.69604,-15.6055 l 40.55376,40.86176 a 90.060152,90.060152 0 0 1 -6.87873,12.32013 z m 13.86014,-31.72433 a 144.38166,144.38166 0 0 1 -4.82538,14.68148 l -42.40178,-42.60711 a 59.742365,59.742365 0 0 0 -7.28941,-26.89895 z m 1.02668,-5.7494 -73.81812,-74.02345 a 32.853681,32.853681 0 0 0 10.16411,-9.44543 l 66.01537,66.42603 a 93.355787,93.355787 0 0 1 -2.36136,17.04285 z" />
</svg>
