<?xml version="1.0" encoding="UTF-8" standalone="no"?>
<svg
   xmlns:dc="http://purl.org/dc/elements/1.1/"
   xmlns:cc="http://creativecommons.org/ns#"
   xmlns:rdf="http://www.w3.org/1999/02/22-rdf-syntax-ns#"
   xmlns:svg="http://www.w3.org/2000/svg"
   xmlns="http://www.w3.org/2000/svg"
   xmlns:xlink="http://www.w3.org/1999/xlink"
   xmlns:sodipodi="http://sodipodi.sourceforge.net/DTD/sodipodi-0.dtd"
   xmlns:inkscape="http://www.inkscape.org/namespaces/inkscape"
   inkscape:export-ydpi="96"
   inkscape:export-xdpi="96"
   inkscape:export-filename="/home/andy/Downloads/new-cat-icons/traditional-logo.png"
   sodipodi:docname="modern-symbolic.svg"
   height="512"
   width="512"
   inkscape:version="1.0 (4035a4fb49, 2020-05-01)"
   version="1.1"
   id="svg2">
  <metadata
     id="metadata8">
    <rdf:RDF>
      <cc:Work
         rdf:about="">
        <dc:format>image/svg+xml</dc:format>
        <dc:type
           rdf:resource="http://purl.org/dc/dcmitype/StillImage" />
        <dc:title />
      </cc:Work>
    </rdf:RDF>
  </metadata>
  <defs
     id="defs6">
    <linearGradient
       gradientTransform="matrix(0,-1,1,0,-1.5e-6,47.999998)"
       gradientUnits="userSpaceOnUse"
       x2="47"
       x1="1"
       id="linearGradient3764">
      <stop
         id="stop7"
         stop-opacity="1"
         stop-color="#e4e4e4" />
      <stop
         id="stop9"
         stop-opacity="1"
         stop-color="#eee"
         offset="1" />
    </linearGradient>
    <clipPath
       id="clipPath-365326813">
      <g
         id="g12"
         transform="translate(0,-1004.3622)">
        <path
           style="fill:#1890d0"
           inkscape:connector-curvature="0"
           id="path14"
           transform="matrix(15.333333,0,0,11.5,414.99999,878.8622)"
           d="m -24,13 c 0,1.105 -0.672,2 -1.5,2 -0.828,0 -1.5,-0.895 -1.5,-2 0,-1.105 0.672,-2 1.5,-2 0.828,0 1.5,0.895 1.5,2 z" />
      </g>
    </clipPath>
    <clipPath
       id="clipPath-370729992">
      <g
         id="g17"
         transform="translate(0,-1004.3622)">
        <path
           style="fill:#1890d0"
           inkscape:connector-curvature="0"
           id="path19"
           transform="matrix(15.333333,0,0,11.5,414.99999,878.8622)"
           d="m -24,13 c 0,1.105 -0.672,2 -1.5,2 -0.828,0 -1.5,-0.895 -1.5,-2 0,-1.105 0.672,-2 1.5,-2 0.828,0 1.5,0.895 1.5,2 z" />
      </g>
    </clipPath>
    <inkscape:perspective
       sodipodi:type="inkscape:persp3d"
       inkscape:vp_x="0 : 256 : 1"
       inkscape:vp_y="0 : 1000 : 0"
       inkscape:vp_z="512 : 256 : 1"
       inkscape:persp3d-origin="256 : 170.66667 : 1"
       id="perspective3018" />
    <defs
       id="defs5">
      <rect
         id="SVGID_1_"
         width="1024"
         height="1024" />
    </defs>
    <clipPath
       id="SVGID_2_">
      <use
         xlink:href="#SVGID_1_"
         overflow="visible"
         id="use9" />
    </clipPath>
    <defs
       id="defs38">
      <rect
         y="0"
         x="0"
         height="1024"
         width="1024"
         id="SVGID_8_" />
    </defs>
    <clipPath
       id="SVGID_9_">
      <use
         height="100%"
         width="100%"
         y="0"
         x="0"
         style="overflow:visible"
         id="use42"
         overflow="visible"
         xlink:href="#SVGID_8_" />
    </clipPath>
    <defs
       id="defs44">
      <filter
         height="413.96701"
         width="413.93399"
         y="293.44199"
         x="305.03299"
         filterUnits="userSpaceOnUse"
         id="Adobe_OpacityMaskFilter">
        <feFlood
           id="feFlood47"
           result="back" />
        <feBlend
           id="feBlend49"
           mode="normal"
           in2="back"
           in="SourceGraphic" />
      </filter>
    </defs>
    <mask
       id="SVGID_10_"
       height="413.967"
       width="413.934"
       y="293.442"
       x="305.033"
       maskUnits="userSpaceOnUse">
      <g
         style="filter:url(#Adobe_OpacityMaskFilter)"
         id="g52">
        <g
           id="g54"
           enable-background="new    ">
          <g
             id="g56">
            <defs
               id="defs58">
              <path
                 inkscape:connector-curvature="0"
                 d="m 513.458,309.257 c 91.063,0 164.903,76.897 164.903,171.722 0,94.833 -73.84,171.727 -164.903,171.727 -91.047,0 -164.89,-76.894 -164.89,-171.727 0,-94.825 73.843,-171.722 164.89,-171.722"
                 id="SVGID_11_" />
            </defs>
            <clipPath
               clip-path="url(#SVGID_9_)"
               id="SVGID_12_">
              <use
                 height="100%"
                 width="100%"
                 y="0"
                 x="0"
                 style="overflow:visible"
                 id="use62"
                 overflow="visible"
                 xlink:href="#SVGID_11_" />
            </clipPath>
            <linearGradient
               gradientTransform="matrix(-10.9559,383.4525,383.4525,10.9559,-392132.59,-11061.132)"
               y2="1024"
               x2="1"
               y1="1024"
               x1="0"
               gradientUnits="userSpaceOnUse"
               id="SVGID_13_">
              <stop
                 id="stop65"
                 style="stop-color:#1C1B18"
                 offset="0" />
              <stop
                 id="stop67"
                 style="stop-color:#4B4846"
                 offset="0.1871" />
              <stop
                 id="stop69"
                 style="stop-color:#7F7B79"
                 offset="0.3677" />
              <stop
                 id="stop71"
                 style="stop-color:#B0ADAD"
                 offset="0.5336" />
              <stop
                 id="stop73"
                 style="stop-color:#D9D8D8"
                 offset="0.6817" />
              <stop
                 id="stop75"
                 style="stop-color:#F5F5F5"
                 offset="0.8068" />
              <stop
                 id="stop77"
                 style="stop-color:#FFFFFF"
                 offset="0.8938" />
              <stop
                 id="stop79"
                 style="stop-color:#FFFFFF"
                 offset="1" />
            </linearGradient>
            <polygon
               style="fill:url(#SVGID_13_)"
               id="polygon81"
               points="338.763,652.426 348.837,299.842 688.166,309.537 678.092,662.121 "
               clip-path="url(#SVGID_12_)" />
          </g>
        </g>
      </g>
    </mask>
    <filter
       id="filter139"
       inkscape:label="Drop Shadow"
       style="color-interpolation-filters:sRGB;">
      <feFlood
         id="feFlood129"
         result="flood"
         flood-color="rgb(0,0,0)"
         flood-opacity="0.498039" />
      <feComposite
         id="feComposite131"
         result="composite1"
         operator="in"
         in2="SourceGraphic"
         in="flood" />
      <feGaussianBlur
         id="feGaussianBlur133"
         result="blur"
         stdDeviation="3"
         in="composite1" />
      <feOffset
         id="feOffset135"
         result="offset"
         dy="2"
         dx="2" />
      <feComposite
         id="feComposite137"
         result="composite2"
         operator="over"
         in2="offset"
         in="SourceGraphic" />
    </filter>
  </defs>
  <sodipodi:namedview
     inkscape:document-rotation="0"
     inkscape:guide-bbox="true"
     showguides="true"
     inkscape:current-layer="svg2"
     inkscape:window-maximized="1"
     inkscape:window-y="40"
     inkscape:window-x="0"
     inkscape:cy="503.44388"
     inkscape:cx="398.88193"
     inkscape:zoom="0.4609375"
     showgrid="false"
     id="namedview4"
     inkscape:window-height="898"
     inkscape:window-width="1920"
     inkscape:pageshadow="2"
     inkscape:pageopacity="0"
     guidetolerance="10"
     gridtolerance="10"
     objecttolerance="10"
     borderopacity="1"
     bordercolor="#666666"
     pagecolor="#ffffff" />
  <g
     transform="matrix(1.2161718,0,0,1.2161718,-59.434531,-64.981176)"
     id="g64">
    <path
       inkscape:connector-curvature="0"
       id="path2984"
       d="M 242.88306,465.05978 C 214.91529,461.87171 196.18722,456.83741 174.73431,446.74069 112.2511,417.33323 69.321844,357.99673 60.119498,288.32094 58.095827,272.99865 58.761564,244.71548 61.507899,229.33622 75.689371,149.92109 133.2641,87.414158 210.19319,67.91364 c 18.40006,-4.664179 26.57957,-5.594971 49.1669,-5.594971 22.5553,0 30.77404,0.932616 49.0541,5.566371 76.98992,19.515939 135.81073,83.91708 149.1815,163.33427 3.44166,20.4421 2.76363,53.93432 -1.52486,75.32357 -3.98452,19.87309 -14.67949,46.51666 -26.26716,65.43734 -35.28067,57.60729 -102.94016,94.36324 -172.19103,93.54262 -6.54772,-0.0776 -13.17603,-0.28597 -14.72958,-0.46306 z m 40.01565,-20.54167 c 14.11828,-1.90877 22.43576,-3.82184 35.30792,-8.12108 C 413.22073,404.66275 464.28269,302.29326 432.52529,207.20992 400.79101,112.19579 298.42154,61.13381 203.33819,92.891208 108.32408,124.62554 57.262098,226.99502 89.019495,322.07837 c 22.064155,66.06115 78.577935,112.5725 148.685075,122.36916 12.00126,1.67703 33.0686,1.70993 45.19414,0.0706 z"
       style="fill:#ecf0f1;fill-opacity:1;filter:url(#filter139)" />
    <circle
       style="fill:#00aad4;fill-opacity:1"
       id="path77-3"
       cx="259.36676"
       cy="263.92749"
       r="189.07317" />
    <rect
       style="fill:#b7c4c8;fill-opacity:1"
       id="rect121"
       width="138.30508"
       height="223.78232"
       x="198.21367"
       y="152.0356" />
    <path
       style="fill:#383a3c;fill-opacity:1"
       d="M 259.36719,74.853516 A 189.07317,189.07317 0 0 0 70.292969,263.92773 189.07317,189.07317 0 0 0 259.36719,453 189.07317,189.07317 0 0 0 448.43945,263.92773 189.07317,189.07317 0 0 0 259.36719,74.853516 Z M 147.7207,164.68555 h 223.29297 c 6.84996,0 12.4043,8.88968 12.4043,19.84961 v 158.78515 c 0,10.95994 -5.55434,19.84766 -12.4043,19.84766 H 147.7207 c -6.84996,0 -12.40429,-8.88772 -12.40429,-19.84766 V 184.53516 c 0,-10.95993 5.55433,-19.84961 12.40429,-19.84961 z m 18.60742,39.69726 c -3.42692,0 -6.20312,4.44077 -6.20312,9.92383 v 29.77344 c 0,5.48307 2.77621,9.92383 6.20312,9.92383 h 80.63282 c 3.42692,0 6.20312,-4.44076 6.20312,-9.92383 v -29.77344 c 0,-5.48306 -2.7762,-9.92383 -6.20312,-9.92383 z m 150.2754,1.10352 c -8.58549,0 -15.07813,6.49443 -15.07813,15.08398 0,8.53718 6.543,14.92774 15.33789,14.92774 4.86859,0 8.01054,-1.62372 11.04688,-5.70899 v 5.02735 h 3.875 v -28.64844 h -3.875 v 5.08008 c -2.82693,-3.98052 -6.33334,-5.76172 -11.30664,-5.76172 z m 0.10351,3.56055 c 6.28207,0 11.20313,4.92466 11.20313,11.31445 0,6.49453 -4.81678,11.57422 -10.99414,11.57422 -6.49146,0 -11.46485,-5.08005 -11.46485,-11.62696 0,-6.23266 5.02615,-11.26171 11.25586,-11.26171 z m -150.37891,59.84374 c -1.71345,10e-6 -3.10156,2.21941 -3.10156,4.96094 v 9.92383 c 0,2.74153 1.38811,4.96289 3.10156,4.96289 h 6.20313 c 1.71346,0 3.10156,-2.22136 3.10156,-4.96289 v -9.92383 c 0,-2.74153 -1.3881,-4.96094 -3.10156,-4.96094 z m 24.81055,0 c -1.71345,10e-6 -3.10156,2.21941 -3.10156,4.96094 v 9.92383 c 0,2.74153 1.38811,4.96289 3.10156,4.96289 h 6.20313 c 1.71346,0 3.09961,-2.22136 3.09961,-4.96289 v -9.92383 c 0,-2.74153 -1.38615,-4.96094 -3.09961,-4.96094 z m 24.81055,0 c -1.71346,10e-6 -3.10156,2.21941 -3.10156,4.96094 v 9.92383 c 0,2.74153 1.3881,4.96289 3.10156,4.96289 h 6.20312 c 1.71345,0 3.09961,-2.22136 3.09961,-4.96289 v -9.92383 c 0,-2.74153 -1.38616,-4.96094 -3.09961,-4.96094 z m 24.81055,0 c -1.71346,10e-6 -3.10157,2.21941 -3.10157,4.96094 v 9.92383 c 0,2.74153 1.38811,4.96289 3.10157,4.96289 h 6.20117 c 1.71346,0 3.10156,-2.22136 3.10156,-4.96289 v -9.92383 c 0,-2.74153 -1.3881,-4.96094 -3.10156,-4.96094 z m -77.53321,44.65821 c -1.71346,0 -3.10156,2.2194 -3.10156,4.96094 v 4.96289 c 0,2.74153 1.3881,4.96093 3.10156,4.96093 h 86.83594 c 1.71346,0 3.10156,-2.2194 3.10156,-4.96093 v -4.96289 c 0,-2.74154 -1.3881,-4.96094 -3.10156,-4.96094 z m 105.44336,0 c -1.71346,0 -3.10156,2.2194 -3.10156,4.96094 v 4.96289 c 0,2.74153 1.3881,4.96093 3.10156,4.96093 h 86.83594 c 1.71345,0 3.10156,-2.2194 3.10156,-4.96093 v -4.96289 c 0,-2.74154 -1.38811,-4.96094 -3.10156,-4.96094 z"
       id="path77" />
  </g>
</svg>
